<?xml version="1.0" encoding="UTF-8"?>
<svg version="1.1" xmlns="http://www.w3.org/2000/svg" width="1080" height="1080">
<path d="M0 0 C356.4 0 712.8 0 1080 0 C1080 356.4 1080 712.8 1080 1080 C723.6 1080 367.2 1080 0 1080 C0 723.6 0 367.2 0 0 Z " fill="#522B64" transform="translate(0,0)"/>
<path d="M0 0 C8.91960031 -0.0465872 17.83915795 -0.08200207 26.75885391 -0.10362434 C30.90178004 -0.11400821 35.04462219 -0.12806729 39.1875 -0.15087891 C43.19458579 -0.17280172 47.20159141 -0.18460907 51.2087326 -0.18975449 C52.72834279 -0.19341569 54.24794919 -0.20056375 55.76752472 -0.21146011 C71.72567837 -0.3212143 87.70841061 0.7414782 99.9375 12.3125 C100.99132935 13.51349754 102.01227795 14.74407144 103 16 C103.54527344 16.65871094 104.09054687 17.31742187 104.65234375 17.99609375 C136.16892947 59.23208005 138.32256874 126.2031574 139 176 C139.01095703 176.78802002 139.02191406 177.57604004 139.03320312 178.38793945 C139.37290745 204.33285705 138.89468645 230.12038127 137 256 C136.87987549 257.65032227 136.87987549 257.65032227 136.75732422 259.33398438 C136.26334407 265.8994106 135.65510534 272.44894657 135 279 C134.85159668 280.56524414 134.85159668 280.56524414 134.70019531 282.16210938 C131.16083588 319.21103484 125.4023191 365.0608107 96.26171875 391.58203125 C84.29955949 401.03185157 68.18909999 401.29839138 53.7109375 401.1953125 C52.15581445 401.19157474 50.60068901 401.18873138 49.04556274 401.18673706 C44.98497833 401.17916064 40.92454073 401.15956484 36.86401367 401.1373291 C32.70753972 401.11674039 28.55104167 401.1077077 24.39453125 401.09765625 C16.26295403 401.07631228 8.13149536 401.04225024 0 401 C0 399.02 0 397.04 0 395 C6.93 395 13.86 395 21 395 C21 266.63 21 138.26 21 6 C14.07 6 7.14 6 0 6 C0 4.02 0 2.04 0 0 Z " fill="#FCFBFC" transform="translate(292,348)"/>
<path d="M0 0 C15.68549824 8.68353593 22.22959619 25.93700637 27.11572266 42.20361328 C30.69464765 55.0368816 33.45971657 68.02662262 35.22265625 81.23046875 C35.34737305 82.15956055 35.47208984 83.08865234 35.60058594 84.04589844 C36.61081149 91.76102843 37.45183641 99.48803622 38.22265625 107.23046875 C38.38362793 108.78773682 38.38362793 108.78773682 38.54785156 110.37646484 C40.40542945 129.19107517 40.43209705 148.02903228 40.47265625 166.91796875 C40.47792328 168.16303192 40.48319031 169.40809509 40.48861694 170.69088745 C40.56499285 194.07403442 39.50884553 217.29273991 35.91015625 240.41796875 C35.80249939 241.12384125 35.69484253 241.82971375 35.58392334 242.55697632 C25.3666157 309.46365127 25.3666157 309.46365127 5.21484375 324.75390625 C-1.81231493 329.37633382 -8.37730772 331.19827202 -16.77734375 330.23046875 C-26.56955535 327.86114343 -33.68066506 321.97411054 -38.9453125 313.48461914 C-56.87804035 282.63053639 -59.8429233 244.04737216 -62.47851562 209.16674805 C-62.66530396 206.70630012 -62.86275698 204.24661158 -63.07617188 201.78833008 C-63.98672676 190.38621328 -63.92847538 178.9853378 -63.90771484 167.5534668 C-63.90238128 164.06750078 -63.9076739 160.5816651 -63.9140625 157.09570312 C-63.95359406 44.32518224 -63.95359406 44.32518224 -34.41015625 7.83984375 C-25.02532039 -1.41028155 -12.54578738 -4.84982343 0 0 Z " fill="#FDFBFC" transform="translate(923.77734375,422.76953125)"/>
<path d="M0 0 C304.26 0 608.52 0 922 0 C922 6.93 922 13.86 922 21 C617.74 21 313.48 21 0 21 C0 14.07 0 7.14 0 0 Z " fill="#FEFDFD" transform="translate(78,801)"/>
<path d="M0 0 C9.57 0 19.14 0 29 0 C33.19742893 12.5922868 33.19742893 12.5922868 31.49543762 18.85728455 C30.86192428 21.59716293 30.8491337 24.15841686 30.82299805 26.97094727 C30.81016281 28.17642715 30.79732758 29.38190704 30.78410339 30.62391663 C30.77671646 31.9249382 30.76932953 33.22595978 30.76171875 34.56640625 C30.75764322 35.23302717 30.7535677 35.89964809 30.74936867 36.58646965 C30.72853559 40.11989909 30.71422603 43.6532901 30.70483398 47.18676758 C30.69381823 50.80893043 30.65946779 54.43047071 30.61966228 58.05241489 C30.59331204 60.86056026 30.58512569 63.66856192 30.58155251 66.47681999 C30.57440489 68.4524555 30.54804087 70.42799203 30.52116394 72.40345764 C30.55605595 87.04386988 35.61183426 97.37886587 45.5625 107.875 C52.40045747 115.25492037 56.09478211 123.79799867 56.16113281 133.83496094 C56.17074036 135.0100824 56.1803479 136.18520386 56.19024658 137.39593506 C56.19449646 138.66262024 56.19874634 139.92930542 56.203125 141.234375 C56.20882507 142.54150452 56.21452515 143.84863403 56.22039795 145.19537354 C56.23088965 147.96260973 56.23674386 150.72981704 56.24023438 153.49707031 C56.24570663 157.02525409 56.26971467 160.55304953 56.29820633 164.08111191 C56.32143092 167.46552476 56.32328905 170.84988666 56.328125 174.234375 C56.3404718 175.49296326 56.3528186 176.75155151 56.36553955 178.04827881 C56.34325852 186.86633371 55.41487024 194.5010887 49.20410156 201.24951172 C43.95155171 205.42106494 37.472056 207.86548664 31.375 210.5625 C29.26132148 211.51697842 27.14994034 212.47641187 25.03863525 213.43612671 C23.6620548 214.06076611 22.28425708 214.68273036 20.9052124 215.3019104 C15.59786083 217.69219962 10.41076131 220.26525226 5.24462891 222.94897461 C3 224 3 224 1 224 C3.78954695 227.42793424 7.6585729 228.9592777 11.5625 230.80078125 C12.30902832 231.15963913 13.05555664 231.51849701 13.82470703 231.88822937 C16.21366666 233.03562007 18.60652011 234.17457265 21 235.3125 C52.23060916 250.21699925 52.23060916 250.21699925 55 257 C56.40722257 262.14858076 56.63290145 266.4322906 54.3125 271.3125 C53.57044541 272.55925166 52.80166168 273.79071373 52 275 C51.46375 275.86625 50.9275 276.7325 50.375 277.625 C43.09246013 284.90753987 32.6857629 288.53580816 23.375 292.5625 C15.6021787 295.92698752 8.04259868 299.23693263 1 304 C4.33054512 305.83843143 7.66450761 307.67056021 11 309.5 C11.99862061 310.04809326 12.99724121 310.59618652 14.02612305 311.16088867 C19.8906661 314.36113952 25.79552203 317.41140451 31.8125 320.3125 C39.86928403 324.26640401 47.79067791 328.30811905 51.41015625 336.96484375 C52.89465624 342.08686028 52.5818529 346.24218776 50.4375 351.125 C42.60743773 364.83428991 22.35850045 369.12549811 8.60595703 374.53613281 C2.40320317 376.96151945 2.40320317 376.96151945 -3.6171875 379.796875 C-6 381 -6 381 -8 381 C-8 381.66 -8 382.32 -8 383 C-7.47792969 383.25136719 -6.95585937 383.50273438 -6.41796875 383.76171875 C-2.68391128 385.67399051 0.93118378 387.79416642 4.55957031 389.89794922 C8.07367295 391.92785165 11.6178136 393.8118598 15.25 395.625 C18.46584558 397.37313127 18.90840056 397.8058092 20.5625 401.3125 C20.706875 402.199375 20.85125 403.08625 21 404 C20.34 404.66 19.68 405.32 19 406 C11.6865864 405.8050719 5.93315841 403.65374481 -0.6875 400.6875 C-1.59822266 400.29626953 -2.50894531 399.90503906 -3.44726562 399.50195312 C-10.51210795 396.40819864 -16.49386699 393.5088588 -21 387 C-22.91531271 381.25406186 -23.36560029 374.23157321 -20.9765625 368.578125 C-14.39845562 359.20159696 -2.96605608 354.81985749 7.00634766 349.97265625 C10.01573126 348.50444853 13.00719746 347.00171394 16 345.5 C17.66666667 344.66666667 19.33333333 343.83333333 21 343 C17.31017151 338.47063188 12.44405493 336.65636757 7.25 334.3125 C-23.32416587 320.08193287 -23.32416587 320.08193287 -28 309 C-28.64512946 303.99815209 -28.69076358 298.24790373 -26.30859375 293.6953125 C-18.75842164 283.9138955 -4.7325329 279.31837777 6.11474609 274.32958984 C9.64488484 272.70282257 13.15951247 271.04443958 16.67333984 269.3828125 C19.77890245 267.91475271 22.88933459 266.45721104 26 265 C22.35007735 261.85411835 18.78768677 259.78165149 14.40625 257.79296875 C13.77827515 257.50448563 13.15030029 257.2160025 12.5032959 256.91877747 C10.50515936 256.00169711 8.50302429 255.09384912 6.5 254.1875 C-1.14222461 250.71659339 -8.75938002 247.21499453 -16.21875 243.36328125 C-17.23904297 242.83645752 -18.25933594 242.30963379 -19.31054688 241.7668457 C-24.21620457 238.5440566 -26.66743899 234.66338427 -28 229 C-28.46853873 223.09641203 -27.90721343 219.31318317 -25 214 C-21.49623791 210.04494833 -17.79281486 207.49525542 -13.125 205.125 C-12.47007568 204.78404297 -11.81515137 204.44308594 -11.14038086 204.09179688 C-6.06747611 201.47743506 -0.91804783 199.03801533 4.26928711 196.66040039 C11.60506017 193.29314447 18.79845039 189.64335952 26 186 C22.79654462 183.40186846 19.47640867 181.66179827 15.7578125 179.890625 C15.15299042 179.60072693 14.54816833 179.31082886 13.92501831 179.012146 C11.99362661 178.08728737 10.05948347 177.16837159 8.125 176.25 C3.71602933 174.14757417 -0.68981281 172.03873322 -5.09033203 169.91867065 C-6.38489652 169.29590354 -7.68050556 168.67530397 -8.97705078 168.05667114 C-10.90276374 167.13565859 -12.8229382 166.20392457 -14.7421875 165.26953125 C-15.86737793 164.72659424 -16.99256836 164.18365723 -18.15185547 163.62426758 C-24.06646331 160.25122746 -26.18363563 155.41990855 -28 149 C-29.24619061 133.69751242 -26.52222793 119.32241922 -16.71484375 107.16796875 C-15.18416048 105.50440479 -13.63903341 103.85398738 -12.078125 102.21875 C-1.73654699 91.17736596 -1.57088199 77.44769377 -1.77734375 63.10546875 C-1.78804903 61.50272102 -1.79709665 59.89996145 -1.80458069 58.29719543 C-1.82717272 54.11262789 -1.86614984 49.92840549 -1.9105835 45.74401855 C-1.9812569 39.03148756 -2.03620776 32.31896571 -2.07293892 25.60616493 C-2.08952202 23.27568246 -2.11906916 20.94561511 -2.14964294 18.61528015 C-2.16010912 17.17866386 -2.17006927 15.74204376 -2.17944336 14.30541992 C-2.1929332 13.0603215 -2.20642303 11.81522308 -2.22032166 10.53239441 C-2 7 -2 7 0 0 Z " fill="#FCFBFC" transform="translate(167,349)"/>
<path d="M0 0 C23.43 0 46.86 0 71 0 C71 1.98 71 3.96 71 6 C66.05 6 61.1 6 56 6 C56.24121582 7.89943359 56.48243164 9.79886719 56.73095703 11.75585938 C65.06950908 77.42834496 65.06950908 77.42834496 68.375 103.8125 C68.49672577 104.78385895 68.61845154 105.7552179 68.74386597 106.75601196 C70.24244155 118.73183426 71.67897679 130.71171607 73.02661133 142.70556641 C73.94495402 150.77953045 75.06129547 158.81786628 76.25390625 166.85546875 C77.89337424 178.00684058 79.29165856 189.19026006 80.63189697 200.38096809 C80.8836365 202.48224539 81.13672972 204.58335616 81.39013672 206.68443298 C82.10891529 212.64593024 82.82541554 218.60770051 83.54101562 224.56958008 C83.98292354 228.25047315 84.42636597 231.93117898 84.8706665 235.61178398 C85.0370728 236.99289361 85.20290793 238.3740722 85.36810303 239.75532722 C86.33315871 247.82413982 87.38733603 255.8676341 88.61621094 263.90086365 C89.15850041 268.27990723 89.18262012 272.59682594 89 277 C89.66 277 90.32 277 91 277 C90.95129761 275.42460449 90.95129761 275.42460449 90.90161133 273.81738281 C90.90729634 267.79456123 91.78417878 261.88302661 92.57421875 255.921875 C92.82026855 254.02077469 92.82026855 254.02077469 93.07128906 252.08126831 C93.51256848 248.67420653 93.96034104 245.26802834 94.4095726 241.86200714 C94.78234342 239.02927229 95.15118022 236.19603067 95.52006245 233.36278725 C97.59805944 217.40777268 99.73263637 201.46140382 101.98352051 185.52978516 C104.28616405 169.21772479 106.30489946 152.87228284 108.31884766 136.52246094 C109.44983115 127.34504212 110.59231784 118.16905464 111.73660278 108.99328613 C112.11130806 105.98492714 112.48432937 102.97636304 112.85717773 99.96777344 C114.15941979 89.49526261 115.51449155 79.03249219 116.97525024 68.58078003 C121.33508514 42.15267769 121.33508514 42.15267769 116.9375 16.3125 C111.48211011 9.80122819 102.96586338 7.8314041 95 6 C95 4.02 95 2.04 95 0 C115.46 0 135.92 0 157 0 C157 1.98 157 3.96 157 6 C156.20335937 6.24234375 155.40671875 6.4846875 154.5859375 6.734375 C143.45476813 10.16844086 143.45476813 10.16844086 136 18.6875 C123.03788498 46.7438795 121.72274595 81.89621041 118.14257812 112.25390625 C116.80208718 123.60725488 115.33681905 134.92829932 113.6875 146.2409668 C112.73610099 152.77597425 111.89412182 159.32370844 111.0625 165.875 C110.76181131 168.22657434 110.46102391 170.57813605 110.16015625 172.9296875 C110.07810944 173.57255203 109.99606262 174.21541656 109.91152954 174.87776184 C108.90252361 182.77917441 107.88119799 190.6789977 106.86125374 198.57900429 C105.73787345 207.2802953 104.61566312 215.98173445 103.4957428 224.68347168 C102.83089645 229.84901003 102.16546267 235.01447265 101.5 240.17993164 C101.16643986 242.77007171 100.83310683 245.36024104 100.5 247.95043945 C98.65944103 262.26060568 96.79699035 276.56722406 94.87890625 290.8671875 C93.48621576 301.25757497 92.15912059 311.65066894 90.9375 322.0625 C89.7743867 331.85880761 88.52592481 341.63386438 87.07177734 351.39160156 C86.07565425 358.18249217 85.311645 364.99046676 84.5625 371.8125 C83.18466598 384.29411005 81.20599427 396.64036517 79 409 C77.35 409 75.7 409 74 409 C72.36380713 402.94296104 71.33260853 396.96691868 70.51953125 390.75 C70.38603775 389.75983887 70.25254425 388.76967773 70.11500549 387.74951172 C69.8274239 385.6148291 69.54173315 383.47989106 69.25775146 381.34472656 C68.49346428 375.6034054 67.71348047 369.86421979 66.93359375 364.125 C66.77389099 362.9481665 66.61418823 361.77133301 66.449646 360.55883789 C64.83360945 348.69475979 63.11615333 336.8462687 61.375 325 C61.07850924 322.97965827 60.78204102 320.95931324 60.4855957 318.93896484 C60.05501652 316.00545176 59.62431782 313.0719565 59.19322205 310.13851929 C57.94440689 301.63653513 56.71453808 293.131945 55.5 284.625 C55.40412598 283.95387177 55.30825195 283.28274353 55.20947266 282.59127808 C53.87038509 273.20771169 52.55354609 263.82107187 51.2421875 254.43359375 C51.08820496 253.33168701 50.93422241 252.22978027 50.77557373 251.09448242 C50.01469733 245.64802159 49.25515039 240.20138113 48.49804688 234.75439453 C47.23189451 225.66275988 45.95018267 216.57513171 44.5703125 207.5 C43.26629317 198.91354946 42.04695182 190.31594659 40.84375 181.71484375 C40.74887928 181.0370392 40.65400856 180.35923466 40.55626297 179.66089058 C39.6709329 173.3337165 38.78809467 167.00619555 37.90673828 160.6784668 C37.32493803 156.50285444 36.74146379 152.32747907 36.15625 148.15234375 C36.06103184 147.47284353 35.96581367 146.79334332 35.86771011 146.09325218 C34.81968123 138.62858405 33.73933952 131.17353644 32.5234375 123.734375 C31.0925105 114.94478943 29.89367055 106.12438254 28.6953125 97.30078125 C28.59183754 96.53933241 28.48836258 95.77788357 28.38175201 94.99336052 C27.41170345 87.84927875 26.44704236 80.7044717 25.48486328 73.55932617 C24.84998483 68.84769354 24.21164144 64.13654014 23.5703125 59.42578125 C23.46586067 58.6578336 23.36140884 57.88988594 23.25379181 57.09866714 C21.50567944 44.28688743 19.57691627 31.50828721 17.51712036 18.74299622 C17.31795013 17.50160385 17.11877991 16.26021149 16.91357422 14.98120117 C16.73672089 13.89377121 16.55986755 12.80634125 16.37765503 11.68595886 C16 9 16 9 16 6 C10.72 6 5.44 6 0 6 C0 4.02 0 2.04 0 0 Z " fill="#FDFBFC" transform="translate(516,343)"/>
<path d="M0 0 C19.06052311 0 19.06052311 0 26.47265625 7.16796875 C41.19749739 24.83024623 39.12982429 60.24362518 39.79614258 82.28955078 C39.9010928 85.75661965 40.00731232 89.22357866 40.12069702 92.69038391 C41.12438651 123.81205202 41.1984327 154.9268992 41.1875 186.0625 C41.18754205 188.06031414 41.18758434 190.05812828 41.18768501 192.05594242 C41.18765452 224.21115983 41.09528955 256.35728931 40.125 288.5 C40.10521969 289.17182941 40.08543938 289.84365883 40.06505966 290.53584671 C39.62360184 305.45858571 38.91773954 320.3605297 38.015625 335.26171875 C37.97557468 335.93871826 37.93552437 336.61571777 37.89426041 337.31323242 C35.7399183 373.30226766 35.7399183 373.30226766 24 384 C16.75192462 389.53142595 8.87854768 389 0 389 C0 260.63 0 132.26 0 0 Z " fill="#532E64" transform="translate(349,354)"/>
<path d="M0 0 C13.2 0 26.4 0 40 0 C41.84495874 5.53487621 43.53082072 10.75742083 44.91357422 16.3737793 C45.0815451 17.05176575 45.24951599 17.7297522 45.4225769 18.42828369 C45.97020772 20.64272664 46.51256628 22.85842114 47.0546875 25.07421875 C47.44172108 26.6453951 47.82902512 28.21650484 48.21658325 29.78755188 C49.02737773 33.07761716 49.83569665 36.36827709 50.64208984 39.65942383 C51.65909747 43.80980558 52.68100284 47.95896082 53.70458603 52.10772514 C57.38704905 67.03806526 61.05060759 81.96771834 64.41218567 96.97422791 C65.94705597 103.81930584 67.61827657 110.62337449 69.34747314 117.42211914 C70.64536138 122.54957284 71.92257557 127.68222934 73.20396042 132.81382751 C74.06697164 136.26927482 74.93100419 139.72446674 75.79492188 143.1796875 C76.15096509 144.60383995 76.50700347 146.0279936 76.86303711 147.45214844 C77.04030334 148.16121338 77.21756958 148.87027832 77.40020752 149.60083008 C81.93347168 167.73388672 86.46673584 185.86694336 91 204 C91.0467918 181.52047612 91.08202399 159.04096031 91.10362434 136.56139755 C91.11392187 126.12294636 91.12795299 115.68452548 91.15087891 105.24609375 C91.17085951 96.14432766 91.18372751 87.04258355 91.18817699 77.94079614 C91.19077647 73.12478683 91.19685447 68.30884036 91.21146011 63.49285126 C91.22511792 58.95225874 91.22920619 54.41175445 91.22621536 49.87114334 C91.22676188 48.2120198 91.23069019 46.55289305 91.23841095 44.89378738 C91.92209997 26.04090444 91.92209997 26.04090444 83.9375 9.875 C79.86386077 7.27480475 75.52707976 5.65260387 71 4 C71 2.68 71 1.36 71 0 C87.17 0 103.34 0 120 0 C120 1.32 120 2.64 120 4 C119.34773437 4.15855469 118.69546875 4.31710937 118.0234375 4.48046875 C112.29051514 6.01093917 108.06354117 7.45270393 104 12 C94.27604951 30.0955635 96.83839934 53.49337599 96.79467773 73.29248047 C96.78561748 76.05313471 96.77511746 78.81378305 96.76467896 81.57443237 C96.74303975 87.49464108 96.72485017 93.41485207 96.70907402 99.33507919 C96.6862599 107.89449509 96.65813382 116.45388721 96.62875474 125.01328279 C96.58121932 138.90386417 96.53791758 152.79445534 96.49731445 166.68505859 C96.45788769 180.17009237 96.41644453 193.65511748 96.37231445 207.14013672 C96.36959018 207.97281735 96.36686591 208.80549798 96.36405908 209.66341136 C96.35037842 213.84116254 96.33665838 218.01891359 96.32291877 222.19666457 C96.20917501 256.79775838 96.10231735 291.39887059 96 326 C94.68 326 93.36 326 92 326 C91.57161458 324.40885417 91.14322917 322.81770833 90.71484375 321.2265625 C90.43487549 320.18685303 90.15490723 319.14714355 89.86645508 318.07592773 C89.23964107 315.74740842 88.61318448 313.41879286 87.98706055 311.09008789 C86.37197049 305.08514197 84.75181736 299.08169005 83.1171875 293.08203125 C82.81433838 291.96683105 82.51148926 290.85163086 82.19946289 289.70263672 C81.63062246 287.60858995 81.05968339 285.51511148 80.48608398 283.42236328 C78.92862583 277.67774057 77.49532111 271.91300754 76.15039062 266.11523438 C74.16609601 257.62675984 72.06250884 249.17185234 69.91796875 240.72265625 C69.53682141 239.21741967 69.15574513 237.71216511 68.7747345 236.20689392 C67.9815688 233.07477614 67.18733153 229.9429326 66.39233398 226.8112793 C65.59294168 223.66192765 64.79508491 220.51219406 63.9987793 217.36206055 C59.94808485 201.33787524 55.85648291 185.3313241 51.51800537 169.38212585 C48.14290513 156.9256139 45.04600121 144.40015315 41.9375 131.875 C41.34593139 129.49864108 40.75413481 127.1223389 40.16210938 124.74609375 C38.99614272 120.06504913 37.83133931 115.38371755 36.66748047 110.70214844 C34.66558941 102.65217189 32.65370829 94.60470534 30.6403656 86.55758667 C28.86354273 79.45509157 27.08786159 72.35231118 25.31225586 65.24951172 C24.98870683 63.95527627 24.66515693 62.66104104 24.34160614 61.36680603 C23.56106226 58.24453948 22.78052703 55.12227077 22 52 C21.95428605 81.53785989 21.91893497 111.07571809 21.89786934 140.61360598 C21.8953682 144.10796394 21.89277953 147.60232183 21.89013672 151.09667969 C21.88934979 152.14009002 21.88934979 152.14009002 21.88854696 153.20457935 C21.87986571 164.43907077 21.86410842 175.67354153 21.84569441 186.90802073 C21.82693169 198.45230452 21.81601937 209.99657384 21.81182301 221.54087257 C21.8092234 228.01809334 21.80314446 234.4952674 21.78853989 240.97247314 C21.77488346 247.07911246 21.77079356 253.18568618 21.77378464 259.29233932 C21.77323806 261.52385185 21.76930897 263.75536676 21.76158905 265.986866 C20.76415531 289.40203986 20.76415531 289.40203986 28 311 C32.57508331 315.46070623 36.73182652 317.14524907 43 318 C43 319.65 43 321.3 43 323 C26.83 323 10.66 323 -6 323 C-6 321.35 -6 319.7 -6 318 C-5.02160156 317.76216797 -5.02160156 317.76216797 -4.0234375 317.51953125 C1.70369977 315.99060522 5.98599991 314.58742868 10 310 C18.66737527 294.04284554 16.30515372 272.05259582 16.31884766 254.55053711 C16.32707584 251.8091402 16.33824668 249.06775706 16.34928894 246.32637024 C16.37141166 240.45695948 16.38651433 234.58756571 16.39665604 228.71812248 C16.41132913 220.23221599 16.43688923 211.7463688 16.46498732 203.2604974 C16.51029981 189.48805248 16.54697834 175.71559895 16.578125 161.94311523 C16.60837457 148.57558687 16.64275394 135.20807948 16.68261719 121.84057617 C16.68507874 121.0146577 16.68754028 120.18873923 16.69007643 119.33779293 C16.70245227 115.1938217 16.71490856 111.04985072 16.72740483 106.90587986 C16.83073953 72.60394846 16.91987351 38.30199324 17 4 C11.39 4 5.78 4 0 4 C0 2.68 0 1.36 0 0 Z " fill="#FCFAFC" transform="translate(729,426)"/>
<path d="M0 0 C5.53758202 2.71228507 8.57361771 6.45645043 11 12 C15.59714636 26.99318275 15.16580957 43.27937246 15.5546875 58.83203125 C15.57562344 59.65470804 15.59655937 60.47738483 15.61812973 61.32499123 C16.27634128 88.21120026 16.15027979 115.1115448 16.12856936 142.00399792 C16.12483047 147.16600206 16.12613413 152.32798683 16.13037109 157.48999023 C16.15415416 187.42746176 16.10648011 217.36368044 15.67306137 247.29853249 C15.63665918 249.84494473 15.60261818 252.39139217 15.57129288 254.93787193 C15.40899423 267.65876831 15.05380219 280.35380161 14.21142578 293.04956055 C14.15206785 294.09057073 14.09270992 295.13158091 14.03155327 296.20413685 C13.37596548 304.97313939 11.56009423 314.64490871 5 321 C0.73805246 323.51760614 -3.15816234 323.78311461 -8 323 C-14.8370877 319.12995036 -16.50972502 313.0330245 -18.65234375 305.796875 C-25.98865155 275.16645119 -22.15993477 238.72365302 -22.1343255 207.32723498 C-22.13171091 203.08282595 -22.1341637 198.83841856 -22.13571167 194.5940094 C-22.13750761 187.48071901 -22.13519593 180.36743916 -22.13037109 173.25415039 C-22.12493144 165.14308243 -22.12669961 157.03203964 -22.1321975 148.92097229 C-22.13680096 141.8335205 -22.13734463 134.74607609 -22.13475883 127.65862328 C-22.1332353 123.47958439 -22.13288936 119.30055713 -22.13629532 115.12151909 C-22.14835114 97.93887974 -22.02058033 80.77079617 -21.54638672 63.59399414 C-21.52644095 62.85658332 -21.50649518 62.11917249 -21.48594499 61.35941589 C-20.13110294 12.45254236 -20.13110294 12.45254236 -11.59765625 3.3046875 C-7.87635354 0.26577526 -4.7902318 -0.57482782 0 0 Z " fill="#532E64" transform="translate(915,425)"/>
<path d="M0 0 C20.79 0 41.58 0 63 0 C63 1.32 63 2.64 63 4 C57.39 4 51.78 4 46 4 C46 107.62 46 211.24 46 318 C51.61 318 57.22 318 63 318 C63 319.65 63 321.3 63 323 C42.21 323 21.42 323 0 323 C0 321.35 0 319.7 0 318 C5.61 318 11.22 318 17 318 C17 214.38 17 110.76 17 4 C11.39 4 5.78 4 0 4 C0 2.68 0 1.36 0 0 Z " fill="#FDFCFD" transform="translate(454,426)"/>
<path d="M0 0 C20.79 0 41.58 0 63 0 C63 1.32 63 2.64 63 4 C57.39 4 51.78 4 46 4 C46 107.62 46 211.24 46 318 C51.61 318 57.22 318 63 318 C63 319.65 63 321.3 63 323 C42.21 323 21.42 323 0 323 C0 321.68 0 320.36 0 319 C5.61 319 11.22 319 17 319 C17 215.05 17 111.1 17 4 C11.39 4 5.78 4 0 4 C0 2.68 0 1.36 0 0 Z " fill="#FEFCFE" transform="translate(651,426)"/>
<path d="M0 0 C102.63 0 205.26 0 311 0 C311 2.97 311 5.94 311 9 C208.37 9 105.74 9 0 9 C0 6.03 0 3.06 0 0 Z " fill="#FDFBFD" transform="translate(78,266)"/>
<path d="M0 0 C98.01 0 196.02 0 297 0 C297 2.97 297 5.94 297 9 C198.99 9 100.98 9 0 9 C0 6.03 0 3.06 0 0 Z " fill="#FDF9FD" transform="translate(703,266)"/>
<path d="M0 0 C20.46 0 40.92 0 62 0 C62 1.98 62 3.96 62 6 C61.20335937 6.24234375 60.40671875 6.4846875 59.5859375 6.734375 C48.45476813 10.16844086 48.45476813 10.16844086 41 18.6875 C28.03788498 46.7438795 26.72274595 81.89621041 23.14257812 112.25390625 C21.80208718 123.60725488 20.33681905 134.92829932 18.6875 146.2409668 C17.73610099 152.77597425 16.89412182 159.32370844 16.0625 165.875 C15.76181131 168.22657434 15.46102391 170.57813605 15.16015625 172.9296875 C15.03681412 173.89602364 15.03681412 173.89602364 14.91098022 174.88188171 C13.46754686 186.18449355 12.00323373 197.48443299 10.54415894 208.78503418 C9.7375789 215.03229295 8.93157765 221.2796264 8.12553596 227.52695465 C7.68527688 230.93919679 7.24498042 234.3514341 6.8046875 237.76367188 C6.62988263 239.11840818 6.45507794 240.47314451 6.28027344 241.82788086 C4.85351562 252.88525391 3.42675781 263.94262695 2 275 C0.02 274.34 -1.96 273.68 -4 273 C-2.61117689 257.06788063 -0.71011145 241.22973621 1.375 225.375 C1.69128851 222.9497129 2.00753166 220.52441989 2.32373047 218.09912109 C3.96168659 205.5877221 5.67073794 193.09541948 7.5859375 180.62329102 C9.80015439 166.01391613 11.50193244 151.3322562 13.30273438 136.66748047 C14.43684516 127.4383811 15.58651269 118.21121619 16.73760986 108.98422241 C17.11196434 105.97962518 17.48455323 102.97481314 17.85693359 99.9699707 C19.1592211 89.49672249 20.5143895 79.03322237 21.97525024 68.58078003 C26.33508514 42.15267769 26.33508514 42.15267769 21.9375 16.3125 C16.48211011 9.80122819 7.96586338 7.8314041 0 6 C0 4.02 0 2.04 0 0 Z " fill="#F6EFF6" transform="translate(611,343)"/>
<path d="M0 0 C1.32 0 2.64 0 4 0 C4 0.99 4 1.98 4 3 C4.99 2.67 5.98 2.34 7 2 C7.33 1.34 7.66 0.68 8 0 C10.475 0.99 10.475 0.99 13 2 C13 2.66 13 3.32 13 4 C13.52207031 4.25136719 14.04414063 4.50273438 14.58203125 4.76171875 C18.31608872 6.67399051 21.93118378 8.79416642 25.55957031 10.89794922 C29.07367295 12.92785165 32.6178136 14.8118598 36.25 16.625 C39.46584558 18.37313127 39.90840056 18.8058092 41.5625 22.3125 C41.706875 23.199375 41.85125 24.08625 42 25 C41.34 25.66 40.68 26.32 40 27 C32.6865864 26.8050719 26.93315841 24.65374481 20.3125 21.6875 C19.40177734 21.29626953 18.49105469 20.90503906 17.55273438 20.50195312 C10.68028588 17.49244953 4.12362273 14.56725102 0 8 C-0.8125 4.25 -0.8125 4.25 -1 1 C-0.67 0.67 -0.34 0.34 0 0 Z " fill="#F7F3F7" transform="translate(146,728)"/>
<path d="M0 0 C1.08667969 0.11085938 2.17335938 0.22171875 3.29296875 0.3359375 C4.12441406 0.43132812 4.95585937 0.52671875 5.8125 0.625 C6.03424933 2.08135371 6.23948698 3.54022956 6.4375 5 C6.61152344 6.21816406 6.61152344 6.21816406 6.7890625 7.4609375 C6.79679687 8.17507813 6.80453125 8.88921875 6.8125 9.625 C6.1525 10.285 5.4925 10.945 4.8125 11.625 C5.4725 11.625 6.1325 11.625 6.8125 11.625 C7.5625 14.375 7.5625 14.375 7.8125 17.625 C6.19096195 20.35213218 4.78797176 21.33863992 1.75 22.23046875 C-2.51270613 22.95772098 -4.66428659 22.88185022 -8.625 20.9375 C-12.25864222 17.65835946 -13.0231084 16.10452441 -13.5625 11.25 C-13.11810645 6.95419568 -11.89158706 4.94716411 -9.1875 1.625 C-5.54331659 -0.80445561 -4.25826636 -0.4578781 0 0 Z " fill="#573464" transform="translate(432.1875,258.375)"/>
<path d="M0 0 C102.63 0 205.26 0 311 0 C310.67 0.99 310.34 1.98 310 3 C309.17210854 2.75678995 309.17210854 2.75678995 308.327492 2.50866657 C305.73843814 1.94283642 303.41070301 1.86897649 300.76012802 1.8613348 C299.69321157 1.85586036 298.62629512 1.85038591 297.52704787 1.84474558 C296.35585096 1.84376747 295.18465404 1.84278936 293.97796631 1.84178162 C292.73314869 1.83684364 291.48833107 1.83190566 290.20579171 1.82681805 C286.74874192 1.81410016 283.29173248 1.80581873 279.83466864 1.79939139 C276.10735769 1.79138725 272.38006722 1.77768951 268.652771 1.76467896 C262.19436026 1.74291642 255.73594745 1.72477111 249.27751923 1.70907402 C239.93968594 1.68637337 230.60187531 1.65823081 221.26406124 1.62875474 C206.11452739 1.58108123 190.96498428 1.53781639 175.81542969 1.49731445 C161.09797444 1.45795831 146.38052742 1.41653179 131.66308594 1.37231445 C130.75609018 1.36959018 129.84909441 1.36686591 128.91461393 1.36405908 C124.36453871 1.35037958 119.8144636 1.33665932 115.26438856 1.32291877 C77.50960947 1.20895778 39.75481281 1.10214758 2 1 C2.33 3.64 2.66 6.28 3 9 C2.01 9 1.02 9 0 9 C0 6.03 0 3.06 0 0 Z " fill="#FBEDFE" transform="translate(78,266)"/>
<path d="M0 0 C0.27972656 0.57492187 0.55945313 1.14984375 0.84765625 1.7421875 C1.9647861 3.93100463 3.15757208 6.02767263 4.4375 8.125 C4.84871094 8.80820312 5.25992188 9.49140625 5.68359375 10.1953125 C7.42477367 12.58233068 9.10472811 13.85334594 12.05078125 14.3359375 C15.9600359 14.40345485 18.65729896 14.14225326 22.3125 12.625 C26.05136313 8.97308717 27.40799799 4.90711209 29 0 C29.33 0 29.66 0 30 0 C30.66 1.98 31.32 3.96 32 6 C32.33 5.34 32.66 4.68 33 4 C33.99 4.33 34.98 4.66 36 5 C36.495 7.475 36.495 7.475 37 10 C29.28559153 16.51796086 22.93178309 20.71331569 12.58203125 20.34765625 C4.52239376 19.26247057 -1.23060113 15.51855544 -7 10 C-6.34 8.68 -5.68 7.36 -5 6 C-4.34 6 -3.68 6 -3 6 C-2.01 4.02 -1.02 2.04 0 0 Z " fill="#F3EDF5" transform="translate(897,733)"/>
<path d="M0 0 C0.99 1.98 0.99 1.98 2 4 C2.99 4 3.98 4 5 4 C7.1875 5 7.1875 5 9 6 C7.58806597 8.82386806 6.0016062 8.94472484 3.0625 10 C2.16660156 10.33 1.27070313 10.66 0.34765625 11 C-9.54121834 13.95396954 -19.03335027 14.26832918 -29.2890625 14.1953125 C-30.84418555 14.19157474 -32.39931099 14.18873138 -33.95443726 14.18673706 C-38.01502167 14.17916064 -42.07545927 14.15956484 -46.13598633 14.1373291 C-50.29246028 14.11674039 -54.44895833 14.1077077 -58.60546875 14.09765625 C-66.73704597 14.07631228 -74.86850464 14.04225024 -83 14 C-83 12.02 -83 10.04 -83 8 C-76.07 8 -69.14 8 -62 8 C-62 8.33 -62 8.66 -62 9 C-68.6 9 -75.2 9 -82 9 C-81.67 9.99 -81.34 10.98 -81 12 C-51.795 12.495 -51.795 12.495 -22 13 C-22.75150023 9.72226496 -22.75150023 9.72226496 -26 8 C-24.99839844 7.89042969 -23.99679687 7.78085937 -22.96484375 7.66796875 C-14.32979957 6.66273379 -6.89505529 5.79184645 0 0 Z " fill="#F0E7F2" transform="translate(375,735)"/>
<path d="M0 0 C2.95374507 1.5431811 4.78188596 3.45514412 6.9140625 6 C4.9340625 8.97 4.9340625 8.97 2.9140625 12 C3.5740625 11.67 4.2340625 11.34 4.9140625 11 C4.2540625 12.98 3.5940625 14.96 2.9140625 17 C1.83478724 15.38108711 0.77014083 13.7495258 -0.19921875 12.0625 C-2.60663891 7.922051 -4.44683825 4.8103802 -9.0859375 3 C-12.95854373 2.42322886 -14.71833041 2.80884431 -18.2109375 4.625 C-22.42072231 8.10264832 -24.71196906 12.16876598 -27.0859375 17 C-27.18390625 16.37351562 -27.281875 15.74703125 -27.3828125 15.1015625 C-27.53234375 14.28429687 -27.681875 13.46703125 -27.8359375 12.625 C-27.97515625 11.81289063 -28.114375 11.00078125 -28.2578125 10.1640625 C-28.90343011 7.82290908 -28.90343011 7.82290908 -31.1640625 6.7109375 C-31.79828125 6.47632813 -32.4325 6.24171875 -33.0859375 6 C-31.69417118 5.03576974 -30.2973152 4.07888398 -28.8984375 3.125 C-28.12113281 2.59132813 -27.34382812 2.05765625 -26.54296875 1.5078125 C-18.36772004 -3.50911278 -8.87312062 -3.35565289 0 0 Z M-30.0859375 15 C-28.0859375 16 -28.0859375 16 -28.0859375 16 Z " fill="#F3EBF5" transform="translate(924.0859375,423)"/>
<path d="M0 0 C5.94 0 11.88 0 18 0 C18.66 1.98 19.32 3.96 20 6 C19.34 6 18.68 6 18 6 C17.62875 5.525625 17.2575 5.05125 16.875 4.5625 C13.89821065 2.08184221 10.81097735 2.31237519 7 2 C6.67 4.31 6.34 6.62 6 9 C7.65 9 9.3 9 11 9 C11.33 7.68 11.66 6.36 12 5 C12.33 5 12.66 5 13 5 C13 8.3 13 11.6 13 15 C12.34 14.67 11.68 14.34 11 14 C11 13.01 11 12.02 11 11 C9.35 11 7.7 11 6 11 C6.33 13.64 6.66 16.28 7 19 C11.65394781 19.32469403 14.23358918 18.79790518 18 16 C18.33 15.34 18.66 14.68 19 14 C19.66 14 20.32 14 21 14 C19.125 19.875 19.125 19.875 18 21 C16.65732587 21.08631874 15.31025678 21.10706473 13.96484375 21.09765625 C13.15595703 21.09443359 12.34707031 21.09121094 11.51367188 21.08789062 C10.66353516 21.07951172 9.81339844 21.07113281 8.9375 21.0625 C8.08349609 21.05798828 7.22949219 21.05347656 6.34960938 21.04882812 C4.23304337 21.03700373 2.11651315 21.01906769 0 21 C0.66 20.67 1.32 20.34 2 20 C2 13.73 2 7.46 2 1 C1.34 0.67 0.68 0.34 0 0 Z " fill="#DFCCE3" transform="translate(660,259)"/>
<path d="M0 0 C3.19140625 -0.4375 3.19140625 -0.4375 7 0 C9.18264615 2.01544241 10.50447561 4.41806388 11.9375 7 C12.33517578 7.66773438 12.73285156 8.33546875 13.14257812 9.0234375 C14.11807693 10.66885717 15.06220268 12.33280476 16 14 C16.33 9.71 16.66 5.42 17 1 C16.01 0.67 15.02 0.34 14 0 C16.31 0 18.62 0 21 0 C20.01 0.495 20.01 0.495 19 1 C19 7.6 19 14.2 19 21 C17.68 21 16.36 21 15 21 C13.62792969 19.53125 13.62792969 19.53125 12.421875 17.5 C11.98359375 16.778125 11.5453125 16.05625 11.09375 15.3125 C10.42859375 14.1678125 10.42859375 14.1678125 9.75 13 C9.29109375 12.236875 8.8321875 11.47375 8.359375 10.6875 C7.22653556 8.79943427 6.11155505 6.90067429 5 5 C4.67 9.95 4.34 14.9 4 20 C4.99 20.33 5.98 20.66 7 21 C4.69 21 2.38 21 0 21 C0.66 20.67 1.32 20.34 2 20 C2 13.73 2 7.46 2 1 C1.34 0.67 0.68 0.34 0 0 Z " fill="#ECD9EF" transform="translate(504,259)"/>
<path d="M0 0 C3.19140625 -0.4375 3.19140625 -0.4375 7 0 C9.18264615 2.01544241 10.50447561 4.41806388 11.9375 7 C12.33517578 7.66773438 12.73285156 8.33546875 13.14257812 9.0234375 C14.11807693 10.66885717 15.06220268 12.33280476 16 14 C16.33 9.71 16.66 5.42 17 1 C16.01 0.67 15.02 0.34 14 0 C16.31 0 18.62 0 21 0 C20.01 0.495 20.01 0.495 19 1 C19 7.6 19 14.2 19 21 C15 20 15 20 13.62792969 18.41772461 C13.22993164 17.75264893 12.83193359 17.08757324 12.421875 16.40234375 C11.98359375 15.68369141 11.5453125 14.96503906 11.09375 14.22460938 C10.42859375 13.09249023 10.42859375 13.09249023 9.75 11.9375 C9.29109375 11.17888672 8.8321875 10.42027344 8.359375 9.63867188 C7.22854514 7.76573492 6.11280661 5.88370126 5 4 C4.67 9.28 4.34 14.56 4 20 C4.99 20.33 5.98 20.66 7 21 C4.69 21 2.38 21 0 21 C0.66 20.67 1.32 20.34 2 20 C2 13.73 2 7.46 2 1 C1.34 0.67 0.68 0.34 0 0 Z " fill="#F4E2F7" transform="translate(617,259)"/>
<path d="M0 0 C1.32 0 2.64 0 4 0 C5.1721449 2.95619219 6.33677476 5.91528789 7.5 8.875 C7.83386719 9.71675781 8.16773438 10.55851562 8.51171875 11.42578125 C8.82753906 12.23144531 9.14335937 13.03710938 9.46875 13.8671875 C9.90864258 14.98262939 9.90864258 14.98262939 10.35742188 16.12060547 C11 18 11 18 11 20 C11.66 20.33 12.32 20.66 13 21 C10.36 21 7.72 21 5 21 C5.66 20.67 6.32 20.34 7 20 C6.34 18.02 5.68 16.04 5 14 C2.36 13.67 -0.28 13.34 -3 13 C-3.66 15.31 -4.32 17.62 -5 20 C-4.01 20.33 -3.02 20.66 -2 21 C-4.64 21 -7.28 21 -10 21 C-9.01 20.67 -8.02 20.34 -7 20 C-6.89816406 19.16210938 -6.79632813 18.32421875 -6.69140625 17.4609375 C-5.91875555 13.59331876 -4.5456453 10.19948538 -2.9375 6.625 C-2.65583984 5.98433594 -2.37417969 5.34367187 -2.08398438 4.68359375 C-1.39540579 3.11970341 -0.69855289 1.55946059 0 0 Z " fill="#F3E5F6" transform="translate(469,259)"/>
<path d="M0 0 C0.33 0 0.66 0 1 0 C1.66 1.98 2.32 3.96 3 6 C3.33 5.34 3.66 4.68 4 4 C4.99 4.33 5.98 4.66 7 5 C7.33 6.65 7.66 8.3 8 10 C-0.83851746 17.34579007 -6.51886072 19.36772332 -18 19 C-18 18.01 -18 17.02 -18 16 C-16.989375 15.938125 -15.97875 15.87625 -14.9375 15.8125 C-10.40421632 15.11507174 -7.09331432 13.4148965 -4 10 C-2.31807589 6.7647695 -1.08686126 3.4766059 0 0 Z " fill="#F1EBF3" transform="translate(926,733)"/>
<path d="M0 0 C23.43 0 46.86 0 71 0 C71 1.98 71 3.96 71 6 C66.05 6 61.1 6 56 6 C55.67 6.99 55.34 7.98 55 9 C55 7.68 55 6.36 55 5 C54.34 5 53.68 5 53 5 C53 4.01 53 3.02 53 2 C55.475 2.495 55.475 2.495 58 3 C58 2.34 58 1.68 58 1 C38.86 1 19.72 1 0 1 C0 0.67 0 0.34 0 0 Z " fill="#E2D5E6" transform="translate(516,343)"/>
<path d="M0 0 C7.39449541 0.59633028 7.39449541 0.59633028 11 3 C11 3.66 11 4.32 11 5 C9.68 5.33 8.36 5.66 7 6 C7.18129815 9.43793339 7.18129815 9.43793339 8 13 C9.93597032 14.51294288 9.93597032 14.51294288 12 15 C7.84287226 18.16733542 5.27329537 19.61317388 0 19 C-1 18 -1 18 -1.09765625 16.15234375 C-1.06510417 14.1015625 -1.03255208 12.05078125 -1 10 C0.65 10 2.3 10 4 10 C4.33 10.99 4.66 11.98 5 13 C5 10.36 5 7.72 5 5 C4.67 5.99 4.34 6.98 4 8 C2.35 8 0.7 8 -1 8 C-1.04241723 5.66705225 -1.04092937 3.33297433 -1 1 C-0.67 0.67 -0.34 0.34 0 0 Z " fill="#583C60" transform="translate(667,260)"/>
<path d="M0 0 C0.33 0.66 0.66 1.32 1 2 C2.8097229 1.99214478 2.8097229 1.99214478 4.65600586 1.98413086 C9.11563378 1.96608389 13.57525846 1.95456911 18.03491211 1.94506836 C19.96818585 1.94002744 21.90145576 1.93319481 23.8347168 1.92456055 C26.60726872 1.91248435 29.37977041 1.90676943 32.15234375 1.90234375 C33.45702858 1.89460182 33.45702858 1.89460182 34.78807068 1.88670349 C36.85905814 1.88650815 38.92994324 1.93791832 41 2 C41.495 2.495 41.495 2.495 42 3 C44.69235776 3.23678716 47.36498156 3.42198025 50.0625 3.5625 C51.20041992 3.62727539 51.20041992 3.62727539 52.36132812 3.69335938 C54.24065438 3.79973633 56.12030244 3.90039934 58 4 C58 4.33 58 4.66 58 5 C50.34192785 5.04629168 42.68387016 5.08185303 35.02569008 5.10362434 C31.46987601 5.11407224 27.9141575 5.12824959 24.35839844 5.15087891 C20.272777 5.17671832 16.18725631 5.18646444 12.1015625 5.1953125 C10.82133209 5.20563507 9.54110168 5.21595764 8.22207642 5.22659302 C6.45046646 5.22681961 6.45046646 5.22681961 4.64306641 5.22705078 C3.59937897 5.231492 2.55569153 5.23593323 1.4803772 5.24050903 C-1 5 -1 5 -3 3 C-2.01 2.01 -1.02 1.02 0 0 Z " fill="#4E2E5A" transform="translate(614,338)"/>
<path d="M0 0 C1.08667969 0.11085938 2.17335938 0.22171875 3.29296875 0.3359375 C4.12441406 0.43132812 4.95585937 0.52671875 5.8125 0.625 C6.1425 3.265 6.4725 5.905 6.8125 8.625 C6.19375 7.820625 5.575 7.01625 4.9375 6.1875 C2.42331518 3.1556889 1.73339401 2.74256094 -2.125 2.25 C-5.30271272 2.30096513 -5.30271272 2.30096513 -7.0625 4.6875 C-8.83688034 9.32060422 -8.81009823 12.90369901 -7.125 17.5625 C-5.25783343 19.97907633 -5.25783343 19.97907633 -1.75 20.125 C1.82119484 19.62377967 3.25804831 19.07727363 5.8125 16.625 C6.4725 16.955 7.1325 17.285 7.8125 17.625 C5.39856722 20.87856157 3.34138801 21.99958792 -0.5625 22.625 C-4.14287228 22.87863428 -5.24856161 22.5950243 -8.625 20.9375 C-12.25864222 17.65835946 -13.0231084 16.10452441 -13.5625 11.25 C-13.11810645 6.95419568 -11.89158706 4.94716411 -9.1875 1.625 C-5.54331659 -0.80445561 -4.25826636 -0.4578781 0 0 Z " fill="#EBDDEE" transform="translate(432.1875,258.375)"/>
<path d="M0 0 C2.83153066 3.53941332 5.3278762 6.89387447 7.75 10.6875 C8.36359375 11.64011719 8.9771875 12.59273438 9.609375 13.57421875 C11 16 11 16 11 18 C12.32 18.33 13.64 18.66 15 19 C13.35 19.33 11.7 19.66 10 20 C9.67 19.34 9.34 18.68 9 18 C8.34 18.33 7.68 18.66 7 19 C7 18.34 7 17.68 7 17 C6.01 17.66 5.02 18.32 4 19 C1.73828125 19.1953125 1.73828125 19.1953125 -0.6875 19.125 C-1.89986328 19.09792969 -1.89986328 19.09792969 -3.13671875 19.0703125 C-3.75160156 19.04710937 -4.36648438 19.02390625 -5 19 C-5 18.01 -5 17.02 -5 16 C-3.35 16.33 -1.7 16.66 0 17 C0 11.39 0 5.78 0 0 Z " fill="#60426B" transform="translate(508,262)"/>
<path d="M0 0 C1.65 0 3.3 0 5 0 C5.33 0.66 5.66 1.32 6 2 C11.94481181 2.04934399 17.88950509 2.08569282 23.83447266 2.10986328 C25.85793127 2.11993671 27.88137528 2.13359595 29.90478516 2.15087891 C32.80895589 2.17506847 35.71293461 2.18646949 38.6171875 2.1953125 C39.97975174 2.21079636 39.97975174 2.21079636 41.36984253 2.22659302 C42.63092331 2.22681961 42.63092331 2.22681961 43.91748047 2.22705078 C44.65916473 2.231492 45.400849 2.23593323 46.16500854 2.24050903 C48.24930143 2.15684325 48.24930143 2.15684325 50 0 C53.0390625 -0.1953125 53.0390625 -0.1953125 56.625 -0.125 C58.40777344 -0.09792969 58.40777344 -0.09792969 60.2265625 -0.0703125 C61.14179687 -0.04710937 62.05703125 -0.02390625 63 0 C63 1.32 63 2.64 63 4 C42.21 4 21.42 4 0 4 C0 2.68 0 1.36 0 0 Z " fill="#FCEEFE" transform="translate(651,745)"/>
<path d="M0 0 C0.33 0 0.66 0 1 0 C1.98810044 4.11241022 2.12092213 7.95346357 2.11352539 12.17700195 C2.11367142 12.87998917 2.11381744 13.58297638 2.1139679 14.30726624 C2.11327441 16.61763659 2.10550857 18.92792508 2.09765625 21.23828125 C2.09579006 22.84539241 2.09436711 24.45250415 2.09336853 26.05961609 C2.08955915 30.27968937 2.07974239 34.49972797 2.06866455 38.7197876 C2.05841643 43.02998384 2.05386363 47.3401857 2.04882812 51.65039062 C2.03811867 60.10027629 2.02106127 68.55013383 2 77 C1.67 77 1.34 77 1 77 C0.97494385 75.72358643 0.9498877 74.44717285 0.92407227 73.13208008 C0.82978306 68.38897956 0.72961503 63.64601814 0.62768555 58.90307617 C0.58441802 56.85167702 0.54273725 54.80024375 0.50268555 52.7487793 C0.44478456 49.79725878 0.3811474 46.84590868 0.31640625 43.89453125 C0.29969376 42.97976517 0.28298126 42.06499908 0.26576233 41.12251282 C0.16925018 36.95860196 -0.01633237 33.06789089 -1 29 C-1.39833114 22.3455268 -0.80631989 15.70460764 -0.21875 9.078125 C-0.00286831 6.04036128 0.03645807 3.04424865 0 0 Z " fill="#492F58" transform="translate(387,467)"/>
<path d="M0 0 C5.94 0 11.88 0 18 0 C18 1.32 18 2.64 18 4 C26.91 4 35.82 4 45 4 C45 4.33 45 4.66 45 5 C30.15 5 15.3 5 0 5 C0 3.35 0 1.7 0 0 Z " fill="#FDF2FD" transform="translate(454,744)"/>
<path d="M0 0 C6.27 0 12.54 0 19 0 C19.33 1.98 19.66 3.96 20 6 C19.2575 5.360625 18.515 4.72125 17.75 4.0625 C15.00606339 1.72664214 15.00606339 1.72664214 11 1 C11 7.27 11 13.54 11 20 C11.99 20.33 12.98 20.66 14 21 C11.03 21 8.06 21 5 21 C5.99 20.67 6.98 20.34 8 20 C8 13.73 8 7.46 8 1 C1.22510108 3.01151263 1.22510108 3.01151263 0 6 C-0.66 6 -1.32 6 -2 6 C-1.34 4.02 -0.68 2.04 0 0 Z " fill="#FCECFD" transform="translate(546,259)"/>
<path d="M0 0 C3 0.0625 3 0.0625 6 1 C7.93720146 4.25802063 8 6.15044673 8 10 C7.34 10 6.68 10 6 10 C5.67 10.99 5.34 11.98 5 13 C3.35 13.33 1.7 13.66 0 14 C-2.08940868 10.86588698 -2.27364412 10.02549528 -2.25 6.4375 C-2.25515625 5.65246094 -2.2603125 4.86742187 -2.265625 4.05859375 C-2 2 -2 2 0 0 Z " fill="#512C5F" transform="translate(426,261)"/>
<path d="M0 0 C0.33 0 0.66 0 1 0 C1.06943717 7.6580332 1.12277913 15.31603387 1.15543652 22.97430992 C1.17110864 26.53018671 1.19237444 30.08584852 1.22631836 33.64160156 C1.26507759 37.72723482 1.27969633 41.81264141 1.29296875 45.8984375 C1.30845261 47.17866791 1.32393646 48.45889832 1.33988953 49.77792358 C1.34011612 50.95899689 1.34034271 52.14007019 1.34057617 53.35693359 C1.34723801 54.40062103 1.35389984 55.44430847 1.36076355 56.5196228 C1.24171158 57.33814728 1.12265961 58.15667175 1 59 C0.01 59.66 -0.98 60.32 -2 61 C-1.34 55.72 -0.68 50.44 0 45 C-0.66 45 -1.32 45 -2 45 C-2 39.72 -2 34.44 -2 29 C-1.34 29 -0.68 29 0 29 C-0.08378906 27.74445313 -0.16757813 26.48890625 -0.25390625 25.1953125 C-0.78569437 16.67053621 -1.25238473 8.48838542 0 0 Z " fill="#4A2E57" transform="translate(164,371)"/>
<path d="M0 0 C23.1 0 46.2 0 70 0 C70 0.33 70 0.66 70 1 C48.55 1.33 27.1 1.66 5 2 C5 2.99 5 3.98 5 5 C3.35 5 1.7 5 0 5 C0 3.35 0 1.7 0 0 Z " fill="#F6E5F9" transform="translate(292,348)"/>
<path d="M0 0 C0.33 0 0.66 0 1 0 C1.33853295 8.16240568 0.29901921 15.95072024 -1 24 C-1.66 24 -2.32 24 -3 24 C-3.66 16.74 -4.32 9.48 -5 2 C-4.01 2.33 -3.02 2.66 -2 3 C-1.34 2.01 -0.68 1.02 0 0 Z " fill="#5A4565" transform="translate(608,596)"/>
<path d="M0 0 C0.33 0 0.66 0 1 0 C1.17752637 7.83228435 1.34343975 15.66472259 1.49477577 23.49755192 C1.56541666 27.13515344 1.63996548 30.77258504 1.72363281 34.40991211 C1.80431957 37.92405053 1.87449589 41.43825982 1.93757248 44.95275688 C1.97588375 46.93749326 2.02490911 48.92201354 2.0741272 50.9065094 C2.26526074 62.47333329 2.26526074 62.47333329 0 68 C-0.99 68.99 -0.99 68.99 -2 70 C-1.84152588 68.80834229 -1.68305176 67.61668457 -1.51977539 66.38891602 C-0.7984715 59.86413088 -0.76870363 53.33583079 -0.68359375 46.77734375 C-0.66297758 45.42256606 -0.64198005 44.06779413 -0.62062073 42.71302795 C-0.56588074 39.17697868 -0.51626311 35.64087609 -0.46777344 32.10473633 C-0.41720337 28.48449049 -0.36170419 24.86432041 -0.30664062 21.24414062 C-0.19964872 14.16282634 -0.09807722 7.08144383 0 0 Z " fill="#513A59" transform="translate(223,476)"/>
<path d="M0 0 C3.96 0.33 7.92 0.66 12 1 C11.01 1.495 11.01 1.495 10 2 C10.350625 2.7425 10.70125 3.485 11.0625 4.25 C12.04509293 7.1322726 12.0326802 8.21176345 11 11 C10.34 10.54625 9.68 10.0925 9 9.625 C5.34793046 7.64679567 2.04947443 6.89225708 -2 6 C-1.67 5.38125 -1.34 4.7625 -1 4.125 C0.14193235 2.08981656 0.14193235 2.08981656 0 0 Z " fill="#F4EEF6" transform="translate(362,349)"/>
<path d="M0 0 C-1.28892677 2.87529818 -2.49296383 5.05008298 -5 7 C-5.78375 7.12375 -6.5675 7.2475 -7.375 7.375 C-10.99243133 8.23629317 -12.56358624 10.28513895 -15 13 C-17.475 12.01 -17.475 12.01 -20 11 C-20 10.34 -20 9.68 -20 9 C-2 0 -2 0 0 0 Z " fill="#593D65" transform="translate(188,564)"/>
<path d="M0 0 C2.64 0 5.28 0 8 0 C8.66 1.65 9.32 3.3 10 5 C9.01 5.33 8.02 5.66 7 6 C7 5.34 7 4.68 7 4 C5.35 4.33 3.7 4.66 2 5 C2 6.32 2 7.64 2 9 C-1.3 9 -4.6 9 -8 9 C-8.33 8.01 -8.66 7.02 -9 6 C-8.34 5.34 -7.68 4.68 -7 4 C-7 4.66 -7 5.32 -7 6 C-6.34 6 -5.68 6 -5 6 C-5 5.01 -5 4.02 -5 3 C-4.34 3.33 -3.68 3.66 -3 4 C-3.33 4.99 -3.66 5.98 -4 7 C-3.34 7 -2.68 7 -2 7 C-1.34 4.69 -0.68 2.38 0 0 Z " fill="#5F426A" transform="translate(466,272)"/>
<path d="M0 0 C1.65 0 3.3 0 5 0 C5 0.99 5 1.98 5 3 C18.53 3 32.06 3 46 3 C46.33 2.01 46.66 1.02 47 0 C47.66 0 48.32 0 49 0 C49 1.65 49 3.3 49 5 C32.83 5 16.66 5 0 5 C0 3.35 0 1.7 0 0 Z " fill="#FBEAFC" transform="translate(723,744)"/>
<path d="M0 0 C0 6.27 0 12.54 0 19 C-0.99 19 -1.98 19 -3 19 C-3.33 17.35 -3.66 15.7 -4 14 C-3.34 14 -2.68 14 -2 14 C-2.33 11.69 -2.66 9.38 -3 7 C-4.65 6.67 -6.3 6.34 -8 6 C-7.6875 4.125 -7.6875 4.125 -7 2 C-4 0 -4 0 0 0 Z " fill="#5E4368" transform="translate(554,260)"/>
<path d="M0 0 C1.32 0 2.64 0 4 0 C4.66 2.31 5.32 4.62 6 7 C5.34 7 4.68 7 4 7 C4 8.65 4 10.3 4 12 C2.02 12 0.04 12 -2 12 C-3.6442351 7.06729471 -2.18615592 4.45975807 0 0 Z " fill="#F0E4F3" transform="translate(469,259)"/>
<path d="M0 0 C0.33 0 0.66 0 1 0 C1.33820429 5.08533475 1.65895766 10.17137853 1.96435547 15.25878906 C2.07037044 16.98531863 2.1809523 18.71157462 2.29638672 20.4375 C3.47093318 38.08633733 3.47093318 38.08633733 1 47 C0.67 47 0.34 47 0 47 C0 31.49 0 15.98 0 0 Z " fill="#DED1E2" transform="translate(930,643)"/>
<path d="M0 0 C2.64 0 5.28 0 8 0 C7.01 0.495 7.01 0.495 6 1 C6 7.27 6 13.54 6 20 C6.66 20.33 7.32 20.66 8 21 C5.36 21 2.72 21 0 21 C0.99 20.67 1.98 20.34 3 20 C3 13.73 3 7.46 3 1 C2.01 0.67 1.02 0.34 0 0 Z " fill="#FDF0FE" transform="translate(587,259)"/>
<path d="M0 0 C0.33 0 0.66 0 1 0 C1 4.62 1 9.24 1 14 C7.98229846 14.35509917 7.98229846 14.35509917 14 11 C14.33 10.34 14.66 9.68 15 9 C15.66 9 16.32 9 17 9 C15.125 14.875 15.125 14.875 14 16 C12.65732587 16.08631874 11.31025678 16.10706473 9.96484375 16.09765625 C9.15595703 16.09443359 8.34707031 16.09121094 7.51367188 16.08789062 C6.66353516 16.07951172 5.81339844 16.07113281 4.9375 16.0625 C4.08349609 16.05798828 3.22949219 16.05347656 2.34960938 16.04882812 C0.23304337 16.03700373 -1.88348685 16.01906769 -4 16 C-3.01 15.67 -2.02 15.34 -1 15 C-1.01160156 14.00097656 -1.02320313 13.00195312 -1.03515625 11.97265625 C-1.04869141 10.03712891 -1.04869141 10.03712891 -1.0625 8.0625 C-1.07410156 6.77472656 -1.08570313 5.48695313 -1.09765625 4.16015625 C-1 1 -1 1 0 0 Z " fill="#FDF7FD" transform="translate(664,264)"/>
<path d="M0 0 C0.33 0 0.66 0 1 0 C1 11.22 1 22.44 1 34 C0.67 34 0.34 34 0 34 C-2.0655473 27.23411279 -2.23960929 21.04406312 -2.125 14 C-2.11597656 12.93910156 -2.10695313 11.87820313 -2.09765625 10.78515625 C-2.07427524 8.18986362 -2.04150556 5.59505535 -2 3 C-1.34 3 -0.68 3 0 3 C0 2.01 0 1.02 0 0 Z " fill="#493057" transform="translate(388,574)"/>
<path d="M0 0 C1.65 0 3.3 0 5 0 C5 4.95 5 9.9 5 15 C-0.44262295 8.19672131 -0.44262295 8.19672131 -2 5 C-1.75495152 2.79456367 -1.57580336 1.57580336 0 0 Z " fill="#503057" transform="translate(516,260)"/>
<path d="M0 0 C1.70134138 3.10689699 2.65139826 6.1029115 3.5078125 9.53515625 C3.77207031 10.59154297 4.03632812 11.64792969 4.30859375 12.73632812 C4.57800781 13.83396484 4.84742188 14.93160156 5.125 16.0625 C5.40214844 17.16400391 5.67929687 18.26550781 5.96484375 19.40039062 C8 27.60618073 8 27.60618073 8 31 C7.34 31 6.68 31 6 31 C5.67 28.03 5.34 25.06 5 22 C4.34 22 3.68 22 3 22 C2.52558849 19.62794244 2.05189183 17.25577742 1.58203125 14.8828125 C1.19763342 12.97888231 0.79943997 11.07767935 0.38671875 9.1796875 C0.10248047 7.85324219 0.10248047 7.85324219 -0.1875 6.5 C-0.36667969 5.6853125 -0.54585937 4.870625 -0.73046875 4.03125 C-1 2 -1 2 0 0 Z " fill="#5C4167" transform="translate(787,620)"/>
<path d="M0 0 C0.33 0 0.66 0 1 0 C2.23152395 10.5643982 1.70921737 16.58156526 -3 26 C-3.21171847 20.07188293 -2.78839722 14.37518977 -2.0625 8.5 C-1.97564941 7.78134766 -1.88879883 7.06269531 -1.79931641 6.32226562 C-1.12690214 1.12690214 -1.12690214 1.12690214 0 0 Z " fill="#604569" transform="translate(611,631)"/>
<path d="M0 0 C-0.33 0.99 -0.66 1.98 -1 3 C-1.99 3.33 -2.98 3.66 -4 4 C-4.474375 4.804375 -4.94875 5.60875 -5.4375 6.4375 C-7.10574575 9.17342303 -7.97752135 10.05547542 -11 11 C-11.99 10.67 -12.98 10.34 -14 10 C-13.01 9.34 -12.02 8.68 -11 8 C-13.64 8.33 -16.28 8.66 -19 9 C-15.70409309 6.29670689 -12.24386481 4.58099915 -8.375 2.8125 C-7.22773438 2.28269531 -6.08046875 1.75289062 -4.8984375 1.20703125 C-2 0 -2 0 0 0 Z " fill="#5D3F6B" transform="translate(202,636)"/>
<path d="M0 0 C4.01371187 7.08302095 4.30687619 16.0212191 4 24 C3.34 24 2.68 24 2 24 C-0.62848705 15.62448194 -1.27895987 8.69076345 0 0 Z " fill="#573E63" transform="translate(579,684)"/>
<path d="M0 0 C0.99 0 1.98 0 3 0 C2.34 4.62 1.68 9.24 1 14 C-0.32 14.33 -1.64 14.66 -3 15 C-3.57798165 3.97553517 -3.57798165 3.97553517 0 0 Z " fill="#FDF7FC" transform="translate(619,540)"/>
<path d="M0 0 C0.66 0 1.32 0 2 0 C3.20268651 10.40161303 2.61642821 19.71363864 1 30 C0.67 30 0.34 30 0 30 C0 20.1 0 10.2 0 0 Z " fill="#65486F" transform="translate(964,570)"/>
<path d="M0 0 C2.31 0 4.62 0 7 0 C6.52433594 0.73476563 6.52433594 0.73476563 6.0390625 1.484375 C4.58626385 5.001677 4.53415248 8.49665393 4.375 12.25 C4.33632813 12.99507813 4.29765625 13.74015625 4.2578125 14.5078125 C4.16394892 16.3381524 4.08090282 18.16904143 4 20 C4.99 20.33 5.98 20.66 7 21 C4.69 21 2.38 21 0 21 C0.66 20.67 1.32 20.34 2 20 C2 13.73 2 7.46 2 1 C1.34 0.67 0.68 0.34 0 0 Z " fill="#E0CAE4" transform="translate(617,259)"/>
<path d="M0 0 C0.33 0 0.66 0 1 0 C1.3396019 1.87387477 1.67138691 3.74916697 2 5.625 C2.185625 6.66914062 2.37125 7.71328125 2.5625 8.7890625 C2.98715797 11.90574865 3.07545206 14.85930812 3 18 C2.34 18 1.68 18 1 18 C0.34 19.98 -0.32 21.96 -1 24 C-1.33 24 -1.66 24 -2 24 C-2.0270043 22.54176788 -2.04639787 21.08339325 -2.0625 19.625 C-2.07410156 18.81289063 -2.08570313 18.00078125 -2.09765625 17.1640625 C-2 15 -2 15 -1 13 C-0.77049681 10.795636 -0.58924067 8.58607827 -0.4375 6.375 C-0.35371094 5.18648437 -0.26992188 3.99796875 -0.18359375 2.7734375 C-0.12300781 1.85820313 -0.06242188 0.94296875 0 0 Z " fill="#594062" transform="translate(556,520)"/>
<path d="M0 0 C-0.25 2.875 -0.25 2.875 -1 6 C-2.9375 7.1875 -2.9375 7.1875 -5 8 C-5.99 9.485 -5.99 9.485 -7 11 C-7.33 10.01 -7.66 9.02 -8 8 C-10.00016466 6.79117904 -10.00016466 6.79117904 -12 6 C-10.56839732 4.99157547 -9.12948547 3.99352109 -7.6875 3 C-6.88699219 2.443125 -6.08648438 1.88625 -5.26171875 1.3125 C-3 0 -3 0 0 0 Z " fill="#FBF8FA" transform="translate(903,423)"/>
<path d="M0 0 C2.475 0.495 2.475 0.495 5 1 C5.33 1.99 5.66 2.98 6 4 C5.67 4.66 5.34 5.32 5 6 C4.01 6 3.02 6 2 6 C1.67 8.31 1.34 10.62 1 13 C1.66 13.33 2.32 13.66 3 14 C3 15.32 3 16.64 3 18 C2.01 18 1.02 18 0 18 C0 12.06 0 6.12 0 0 Z " fill="#50365F" transform="translate(557,260)"/>
<path d="M0 0 C6.27 0 12.54 0 19 0 C19.33 1.98 19.66 3.96 20 6 C19.278125 5.360625 18.55625 4.72125 17.8125 4.0625 C15.01808816 2.01326465 13.38336726 1.38667054 10 1 C9.67 2.32 9.34 3.64 9 5 C8.67 3.68 8.34 2.36 8 1 C3.18877153 2.52555966 3.18877153 2.52555966 0 6 C-0.66 6 -1.32 6 -2 6 C-1.34 4.02 -0.68 2.04 0 0 Z " fill="#ECD7F0" transform="translate(546,259)"/>
<path d="M0 0 C2.52419593 2.52419593 2.78957038 4.42357863 3.625 7.875 C3.88539063 8.92429687 4.14578125 9.97359375 4.4140625 11.0546875 C5 14 5 14 5 18 C4.34 18 3.68 18 3 18 C3 17.34 3 16.68 3 16 C2.01 16 1.02 16 0 16 C0 10.72 0 5.44 0 0 Z " fill="#5B3F65" transform="translate(751,480)"/>
<path d="M0 0 C2.64 0 5.28 0 8 0 C8.33 1.32 8.66 2.64 9 4 C8.01 4.495 8.01 4.495 7 5 C6.5316735 7.58605332 6.5316735 7.58605332 6.375 10.5625 C6.26285156 12.08037109 6.26285156 12.08037109 6.1484375 13.62890625 C6.09945312 14.41136719 6.05046875 15.19382812 6 16 C6.99 16.33 7.98 16.66 9 17 C9 17.99 9 18.98 9 20 C8.34 20 7.68 20 7 20 C6.67 20.99 6.34 21.98 6 23 C4.35 23 2.7 23 1 23 C1.33 22.34 1.66 21.68 2 21 C2.99 21.33 3.98 21.66 5 22 C5 15.4 5 8.8 5 2 C3.35 1.67 1.7 1.34 0 1 C0 0.67 0 0.34 0 0 Z " fill="#63456F" transform="translate(631,258)"/>
<path d="M0 0 C1.08667969 0.11085938 2.17335938 0.22171875 3.29296875 0.3359375 C4.12441406 0.43132812 4.95585937 0.52671875 5.8125 0.625 C6.1425 3.265 6.4725 5.905 6.8125 8.625 C6.19375 7.820625 5.575 7.01625 4.9375 6.1875 C2.44751072 3.18486587 1.75124004 2.74744435 -2.0625 2.25 C-5.39682206 2.31316142 -5.39682206 2.31316142 -7.5625 5.125 C-8.09875 5.95 -8.635 6.775 -9.1875 7.625 C-9.1875 6.965 -9.1875 6.305 -9.1875 5.625 C-9.8475 5.625 -10.5075 5.625 -11.1875 5.625 C-8.70947532 -0.0935185 -5.94092959 -0.63880963 0 0 Z " fill="#E4CBE9" transform="translate(432.1875,258.375)"/>
<path d="M0 0 C4 4 4 4 5 7 C4.835 7.804375 4.67 8.60875 4.5 9.4375 C3.98666488 12.06834251 4.16441342 13.49324027 5 16 C2.525 15.01 2.525 15.01 0 14 C0 9.38 0 4.76 0 0 Z " fill="#4D325A" transform="translate(622,264)"/>
<path d="M0 0 C0.33 0 0.66 0 1 0 C1.19820989 4.02037968 1.3816467 8.04130512 1.5625 12.0625 C1.61857422 13.19623047 1.67464844 14.32996094 1.73242188 15.49804688 C1.97983976 21.15566921 2.09078977 26.43293223 1 32 C0.67 32 0.34 32 0 32 C-1.92859423 21.39273173 -0.96374295 10.67001128 0 0 Z " fill="#5A4165" transform="translate(963,619)"/>
<path d="M0 0 C0.66 0.33 1.32 0.66 2 1 C1.91276622 2.77174819 1.80458345 4.54247377 1.6875 6.3125 C1.62949219 7.29863281 1.57148437 8.28476562 1.51171875 9.30078125 C0.94885655 12.26977196 0.436747 13.26616079 -2 15 C-4.6875 15.1875 -4.6875 15.1875 -7 15 C-7.33 13.68 -7.66 12.36 -8 11 C-7.67 11.66 -7.34 12.32 -7 13 C-5.35 13 -3.7 13 -2 13 C-1.93941406 12.14535156 -1.87882813 11.29070313 -1.81640625 10.41015625 C-1.73261719 9.30542969 -1.64882813 8.20070313 -1.5625 7.0625 C-1.48128906 5.96035156 -1.40007813 4.85820313 -1.31640625 3.72265625 C-1 1 -1 1 0 0 Z " fill="#61426D" transform="translate(597,739)"/>
<path d="M0 0 C0.66 0.33 1.32 0.66 2 1 C1.67 1.66 1.34 2.32 1 3 C1.99 3.33 2.98 3.66 4 4 C5.1328125 5.7421875 5.1328125 5.7421875 6.125 7.875 C6.45757812 8.57367188 6.79015625 9.27234375 7.1328125 9.9921875 C8 12 8 12 9 15 C8.01 15 7.02 15 6 15 C4.5 13.171875 4.5 13.171875 3 10.75 C1.10577204 7.73107419 -0.82356138 4.82418821 -3 2 C-2.01 1.34 -1.02 0.68 0 0 Z " fill="#52375E" transform="translate(212,451)"/>
<path d="M0 0 C1.65 0 3.3 0 5 0 C7.125 4.625 7.125 4.625 6 8 C4.02 8 2.04 8 0 8 C0 5.36 0 2.72 0 0 Z " fill="#4E3258" transform="translate(666,270)"/>
<path d="M0 0 C0.33 0 0.66 0 1 0 C1.09796875 0.80824219 1.1959375 1.61648438 1.296875 2.44921875 C2.30423143 10.53689391 2.30423143 10.53689391 7 17 C5.125 18.0625 5.125 18.0625 3 19 C2.34 18.67 1.68 18.34 1 18 C0.33203125 15.48828125 0.33203125 15.48828125 -0.1875 12.3125 C-0.36667969 11.27738281 -0.54585937 10.24226562 -0.73046875 9.17578125 C-1.00838132 5.90124623 -0.67725108 3.20373384 0 0 Z " fill="#61466D" transform="translate(144,724)"/>
<path d="M0 0 C1.74214158 3.48428316 2.70662843 6.31944012 3.625 10.0625 C3.88539063 11.10535156 4.14578125 12.14820313 4.4140625 13.22265625 C5 16 5 16 5 19 C4.34 19 3.68 19 3 19 C2.34 16.03 1.68 13.06 1 10 C0.01 10.99 -0.98 11.98 -2 13 C-2.33 11.68 -2.66 10.36 -3 9 C-2.34 9 -1.68 9 -1 9 C-0.67 6.03 -0.34 3.06 0 0 Z " fill="#60446C" transform="translate(797,659)"/>
<path d="M0 0 C2.64 0.33 5.28 0.66 8 1 C8 1.99 8 2.98 8 4 C6.02 4.66 4.04 5.32 2 6 C1.67 8.97 1.34 11.94 1 15 C0.67 15 0.34 15 0 15 C0 10.05 0 5.1 0 0 Z " fill="#4C2F56" transform="translate(350,354)"/>
<path d="M0 0 C0.33 0.66 0.66 1.32 1 2 C1.66 2 2.32 2 3 2 C3.08107583 3.93681161 3.13922475 5.8745934 3.1875 7.8125 C3.23970703 9.43091797 3.23970703 9.43091797 3.29296875 11.08203125 C3 14 3 14 0 17 C0 11.39 0 5.78 0 0 Z " fill="#4B2D5A" transform="translate(594,261)"/>
<path d="M0 0 C0.515625 0.825 1.03125 1.65 1.5625 2.5 C3.83527164 5.33960887 3.83527164 5.33960887 7.5 5.5 C11.02773771 4.99603747 12.47220555 4.42668267 15 2 C15.66 2.33 16.32 2.66 17 3 C14.58606722 6.25356157 12.52888801 7.37458792 8.625 8 C3.8131369 8.37381416 1.62048397 7.06348643 -2 4 C-1.34 3.67 -0.68 3.34 0 3 C0 2.01 0 1.02 0 0 Z " fill="#EAD1EE" transform="translate(423,273)"/>
<path d="M0 0 C-0.625 1.9375 -0.625 1.9375 -2 4 C-6.24986926 5.25564319 -9.70682182 4.91996675 -14 4 C-11.58592302 2.39061535 -9.65955563 1.34509262 -7 0.3125 C-5.9790625 -0.09548828 -5.9790625 -0.09548828 -4.9375 -0.51171875 C-3 -1 -3 -1 0 0 Z " fill="#5A3C61" transform="translate(185,721)"/>
<path d="M0 0 C2.64 0 5.28 0 8 0 C8 1.32 8 2.64 8 4 C2.06 4 -3.88 4 -10 4 C-10 3.67 -10 3.34 -10 3 C-4.555 2.505 -4.555 2.505 1 2 C0.67 1.34 0.34 0.68 0 0 Z " fill="#F9ECFC" transform="translate(509,745)"/>
<path d="M0 0 C0.99 0.33 1.98 0.66 3 1 C3.05418326 3.08304538 3.09287551 5.16649768 3.125 7.25 C3.14820313 8.41015625 3.17140625 9.5703125 3.1953125 10.765625 C3.0103949 13.82786046 2.60823023 15.44202751 1 18 C0.8309093 15.93769732 0.66482867 13.8751477 0.5 11.8125 C0.4071875 10.66394531 0.314375 9.51539063 0.21875 8.33203125 C0.0354038 5.53927574 -0.04213637 2.79680188 0 0 Z " fill="#4E335B" transform="translate(619,490)"/>
<path d="M0 0 C0.99 0 1.98 0 3 0 C3.33 1.65 3.66 3.3 4 5 C5.65 5.33 7.3 5.66 9 6 C8.34 7.32 7.68 8.64 7 10 C3.7 10 0.4 10 -3 10 C-3 9.67 -3 9.34 -3 9 C-1.02 8.67 0.96 8.34 3 8 C2.01 5.36 1.02 2.72 0 0 Z " fill="#654670" transform="translate(477,271)"/>
<path d="M0 0 C0.33 0 0.66 0 1 0 C1.02578125 0.62648438 1.0515625 1.25296875 1.078125 1.8984375 C1.13484375 2.71570313 1.1915625 3.53296875 1.25 4.375 C1.29640625 5.18710937 1.3428125 5.99921875 1.390625 6.8359375 C1.7922092 9.18838927 1.7922092 9.18838927 4.046875 10.2890625 C4.69140625 10.52367187 5.3359375 10.75828125 6 11 C1.81413519 14.18923033 -0.70558305 15.50423019 -6 15 C-6 14.67 -6 14.34 -6 14 C-4.35 14 -2.7 14 -1 14 C-0.67 9.38 -0.34 4.76 0 0 Z " fill="#61476A" transform="translate(673,264)"/>
<path d="M0 0 C-0.56159415 3.25724605 -1.29043887 5.03790401 -4 7 C-7.1875 7.6875 -7.1875 7.6875 -10 8 C-10.33 7.01 -10.66 6.02 -11 5 C-9.54462432 4.16151196 -8.08559627 3.32936066 -6.625 2.5 C-5.81289062 2.0359375 -5.00078125 1.571875 -4.1640625 1.09375 C-2 0 -2 0 0 0 Z " fill="#F2E9F2" transform="translate(161,630)"/>
<path d="M0 0 C0.66 0 1.32 0 2 0 C2 6.6 2 13.2 2 20 C-0.61020066 17.38979934 -0.63751674 15.62483262 -1 12 C-0.68770276 10.66158328 -0.35169068 9.32860925 0 8 C0.09288354 5.32701812 0.04459723 2.67583366 0 0 Z " fill="#4C3057" transform="translate(386,624)"/>
<path d="M0 0 C0.66 0 1.32 0 2 0 C0.63560848 5.15436796 -2.72573615 8.06648401 -7 11 C-7.66 11 -8.32 11 -9 11 C-9 10.34 -9 9.68 -9 9 C-8.34 9 -7.68 9 -7 9 C-6.67 7.35 -6.34 5.7 -6 4 C-5.01 4 -4.02 4 -3 4 C-1.9739266 2.68662604 -0.97272675 1.35335895 0 0 Z " fill="#EFE4F1" transform="translate(219,542)"/>
<path d="M0 0 C0.33 0 0.66 0 1 0 C0.49656013 7.02673515 -0.04187968 14.01940909 -1 21 C-1.33 21 -1.66 21 -2 21 C-2.05390357 18.06225537 -2.0936255 15.12549768 -2.125 12.1875 C-2.14175781 11.35412109 -2.15851563 10.52074219 -2.17578125 9.66210938 C-2.18222656 8.85966797 -2.18867188 8.05722656 -2.1953125 7.23046875 C-2.20578613 6.49207764 -2.21625977 5.75368652 -2.22705078 4.99291992 C-2 3 -2 3 0 0 Z " fill="#50355B" transform="translate(165,349)"/>
<path d="M0 0 C0.66 0.66 1.32 1.32 2 2 C1.9765625 5.2578125 1.9765625 5.2578125 1.625 9.125 C1.51414062 10.40632813 1.40328125 11.68765625 1.2890625 13.0078125 C1.19367187 13.99523437 1.09828125 14.98265625 1 16 C2.32 16.33 3.64 16.66 5 17 C5 17.99 5 18.98 5 20 C1.7 19.67 -1.6 19.34 -5 19 C-4.67 18.34 -4.34 17.68 -4 17 C-2.68 17 -1.36 17 0 17 C0 11.39 0 5.78 0 0 Z " fill="#7A5F86" transform="translate(621,262)"/>
<path d="M0 0 C0 0.66 0 1.32 0 2 C-1.65 2.66 -3.3 3.32 -5 4 C-4.34 5.98 -3.68 7.96 -3 10 C-6.42559084 8.79641403 -8.53258609 7.64107354 -11 5 C-9.54462432 4.16151196 -8.08559627 3.32936066 -6.625 2.5 C-5.81289062 2.0359375 -5.00078125 1.571875 -4.1640625 1.09375 C-2 0 -2 0 0 0 Z " fill="#5B4665" transform="translate(178,647)"/>
<path d="M0 0 C0.33 0 0.66 0 1 0 C2.03590199 5.05002222 2.10251672 9.87416389 2 15 C1.01 14.67 0.02 14.34 -1 14 C-0.979375 13.0925 -0.95875 12.185 -0.9375 11.25 C-0.85422971 8.15065303 -0.85422971 8.15065303 -1.625 5.875 C-2.13034477 3.34827616 -1.30563197 2.15045266 0 0 Z " fill="#ECE1EF" transform="translate(957,498)"/>
<path d="M0 0 C3.96 1.98 7.92 3.96 12 6 C12 6.66 12 7.32 12 8 C3.69849483 6.67732832 3.69849483 6.67732832 0.9375 4 C0 2 0 2 0 0 Z " fill="#563C63" transform="translate(151,592)"/>
<path d="M0 0 C0.33 0 0.66 0 1 0 C1.02712325 2.87506421 1.04689851 5.74986908 1.0625 8.625 C1.07087891 9.43324219 1.07925781 10.24148438 1.08789062 11.07421875 C1.1058955 15.50341918 0.89622662 19.63883424 0 24 C-0.33 24 -0.66 24 -1 24 C-1.98970409 15.58751519 -2.00107527 8.25236826 0 0 Z " fill="#4D2F59" transform="translate(859,548)"/>
<path d="M0 0 C0.33 0 0.66 0 1 0 C1.36508677 2.54052114 1.71731457 5.0817628 2.0625 7.625 C2.16626953 8.33785156 2.27003906 9.05070313 2.37695312 9.78515625 C2.95108834 14.10106924 2.97103611 17.69484691 2 22 C1.67 22 1.34 22 1 22 C0.02700844 17.14270355 -0.12038805 12.5499375 -0.0625 7.625 C-0.05798828 6.88894531 -0.05347656 6.15289063 -0.04882812 5.39453125 C-0.03715142 3.59631842 -0.01922011 1.79814803 0 0 Z " fill="#4B3158" transform="translate(963,536)"/>
<path d="M0 0 C3.3 1.65 6.6 3.3 10 5 C8.68 6.32 7.36 7.64 6 9 C5.34 8.34 4.68 7.68 4 7 C4.33 6.34 4.66 5.68 5 5 C3.35 4.67 1.7 4.34 0 4 C0 2.68 0 1.36 0 0 Z " fill="#573E63" transform="translate(184,529)"/>
<path d="M0 0 C0 0.99 0 1.98 0 3 C-3.63 3 -7.26 3 -11 3 C-11 2.01 -11 1.02 -11 0 C-3.57142857 -1.28571429 -3.57142857 -1.28571429 0 0 Z " fill="#FDF6FC" transform="translate(919,749)"/>
<path d="M0 0 C5.28 0 10.56 0 16 0 C16 0.33 16 0.66 16 1 C15.07316406 1.04898438 14.14632813 1.09796875 13.19140625 1.1484375 C11.99386719 1.22320313 10.79632813 1.29796875 9.5625 1.375 C7.77005859 1.47941406 7.77005859 1.47941406 5.94140625 1.5859375 C4.97074219 1.72257813 4.00007813 1.85921875 3 2 C2.67 2.66 2.34 3.32 2 4 C4.97 4 7.94 4 11 4 C11 4.33 11 4.66 11 5 C7.37 5 3.74 5 0 5 C0 3.35 0 1.7 0 0 Z " fill="#D7C6DB" transform="translate(454,744)"/>
<path d="M0 0 C1.33599921 0.32248257 2.66893378 0.65772583 4 1 C6.68149993 0.61432869 6.68149993 0.61432869 9 0 C9 0.66 9 1.32 9 2 C7.71086513 2.67154933 6.41859796 3.33708859 5.125 4 C4.40570313 4.37125 3.68640625 4.7425 2.9453125 5.125 C1 6 1 6 -1 6 C-1.625 4.125 -1.625 4.125 -2 2 C-1.34 1.34 -0.68 0.68 0 0 Z " fill="#F7F0F6" transform="translate(180,640)"/>
<path d="M0 0 C0.66 0.33 1.32 0.66 2 1 C1.814375 1.598125 1.62875 2.19625 1.4375 2.8125 C0.77906313 5.16408762 0.77906313 5.16408762 2 8 C1.0925 7.79375 0.185 7.5875 -0.75 7.375 C-4.21546863 6.97513823 -5.09470856 7.34524705 -8 9 C-7.04270084 7.87411986 -6.08412105 6.7493285 -5.125 5.625 C-4.59132812 4.99851562 -4.05765625 4.37203125 -3.5078125 3.7265625 C-2.38567993 2.44163349 -1.20628025 1.20628025 0 0 Z " fill="#EDE4EF" transform="translate(158,448)"/>
<path d="M0 0 C0.66 0.33 1.32 0.66 2 1 C1.34206835 2.67013418 0.67276716 4.3357865 0 6 C-0.24105469 6.61230469 -0.48210938 7.22460938 -0.73046875 7.85546875 C-2.77425614 12.88712807 -2.77425614 12.88712807 -5 14 C-4.53411505 8.29290936 -3.06242216 4.84060277 0 0 Z " fill="#583E62" transform="translate(653,359)"/>
<path d="M0 0 C2.31 0.66 4.62 1.32 7 2 C7 2.66 7 3.32 7 4 C-4.385 3.505 -4.385 3.505 -16 3 C-16 2.67 -16 2.34 -16 2 C-14.92878906 1.93941406 -13.85757813 1.87882812 -12.75390625 1.81640625 C-11.35675609 1.73201463 -9.95962143 1.64736594 -8.5625 1.5625 C-7.50192383 1.50352539 -7.50192383 1.50352539 -6.41992188 1.44335938 C-2.91309581 1.52375562 -2.91309581 1.52375562 0 0 Z " fill="#4B2D55" transform="translate(192,345)"/>
<path d="M0 0 C1.22589844 0.15275391 1.22589844 0.15275391 2.4765625 0.30859375 C3.41628906 0.43427734 3.41628906 0.43427734 4.375 0.5625 C3.055 1.5525 1.735 2.5425 0.375 3.5625 C3.345 4.0575 3.345 4.0575 6.375 4.5625 C6.375 4.8925 6.375 5.2225 6.375 5.5625 C4.79205218 5.61687607 3.20855744 5.65546271 1.625 5.6875 C0.74328125 5.71070313 -0.1384375 5.73390625 -1.046875 5.7578125 C-3.7385858 5.55389502 -5.32404974 4.92801721 -7.625 3.5625 C-6.635 3.2325 -5.645 2.9025 -4.625 2.5625 C-5.285 1.9025 -5.945 1.2425 -6.625 0.5625 C-4.10446405 -0.69776798 -2.7707902 -0.35624445 0 0 Z " fill="#D6C5DA" transform="translate(910.625,747.4375)"/>
<path d="M0 0 C3.45925163 1.2491742 6.14693203 2.67527795 9 5 C8.01 5.66 7.02 6.32 6 7 C2.875 6.375 2.875 6.375 0 5 C-0.9375 2.9375 -0.9375 2.9375 -1 1 C-0.67 0.67 -0.34 0.34 0 0 Z " fill="#F4EEF6" transform="translate(170,655)"/>
<path d="M0 0 C0.33 0.66 0.66 1.32 1 2 C0.01 2.495 0.01 2.495 -1 3 C-0.34 4.32 0.32 5.64 1 7 C0.01 7.33 -0.98 7.66 -2 8 C-4.33333333 5.66666667 -6.66666667 3.33333333 -9 1 C-6.04335481 -0.4783226 -3.25770263 -0.06032783 0 0 Z " fill="#573865" transform="translate(221,595)"/>
<path d="M0 0 C2.79477511 4.19216267 2.44946352 7.56282282 1.546875 12.45703125 C1.06389844 14.64767493 0.55216241 16.8258605 0 19 C-0.33 19 -0.66 19 -1 19 C-1.10655578 12.55929529 -0.96205088 6.37358711 0 0 Z " fill="#5B416B" transform="translate(636,432)"/>
<path d="M0 0 C0.33 0 0.66 0 1 0 C3.00925164 6.38232875 2.99989549 11.40609458 2 18 C-0.37590142 14.29583874 -0.20500286 11.07015427 -0.125 6.75 C-0.10695313 5.48671875 -0.08890625 4.2234375 -0.0703125 2.921875 C-0.04710937 1.95765625 -0.02390625 0.9934375 0 0 Z " fill="#573D63" transform="translate(427,462)"/>
<path d="M0 0 C1.32 0 2.64 0 4 0 C4.268125 0.639375 4.53625 1.27875 4.8125 1.9375 C5.88667752 4.33131686 5.88667752 4.33131686 9 5 C9 5.66 9 6.32 9 7 C4.545 6.01 4.545 6.01 0 5 C0 3.35 0 1.7 0 0 Z " fill="#F2E5F5" transform="translate(611,344)"/>
<path d="M0 0 C0.66 0 1.32 0 2 0 C3.65 2.97 5.3 5.94 7 9 C5.68 9.33 4.36 9.66 3 10 C0.59185923 6.48812804 -0.36629408 4.27343092 0 0 Z " fill="#ECE0EF" transform="translate(623,260)"/>
<path d="M0 0 C0.66 0 1.32 0 2 0 C3.04976964 3.14930893 3.10131595 5.38814456 3.0625 8.6875 C3.05347656 9.68136719 3.04445313 10.67523437 3.03515625 11.69921875 C3.02355469 12.45847656 3.01195312 13.21773437 3 14 C2.34 13.01 1.68 12.02 1 11 C0.4121875 10.13375 0.4121875 10.13375 -0.1875 9.25 C-1.36513195 5.98886538 -0.64352802 3.34634569 0 0 Z " fill="#4D3057" transform="translate(571,638)"/>
<path d="M0 0 C-3.81234923 3.3502463 -7.33285711 5.16974789 -12 7 C-12.66 6.34 -13.32 5.68 -14 5 C-12.23628182 3.96692229 -10.46374967 2.94887951 -8.6875 1.9375 C-7.70136719 1.36902344 -6.71523437 0.80054688 -5.69921875 0.21484375 C-3 -1 -3 -1 0 0 Z " fill="#5E4566" transform="translate(216,630)"/>
<path d="M0 0 C0.66 0 1.32 0 2 0 C2.33 2.31 2.66 4.62 3 7 C-0.91211733 5.84414715 -3.8745041 4.64465038 -7 2 C-3.535 1.505 -3.535 1.505 0 1 C0 0.67 0 0.34 0 0 Z " fill="#5C3F69" transform="translate(203,586)"/>
<path d="M0 0 C2 0 2 0 3.6875 1.0625 C5 3 5 3 4.8125 6.625 C4.544375 7.73875 4.27625 8.8525 4 10 C3.01 10.495 3.01 10.495 2 11 C0.57741188 7.17679443 -0.24042276 4.08718695 0 0 Z " fill="#4D325D" transform="translate(770,426)"/>
<path d="M0 0 C-0.33 0.66 -0.66 1.32 -1 2 C-2.32 2 -3.64 2 -5 2 C-5 2.66 -5 3.32 -5 4 C-6.65 4.66 -8.3 5.32 -10 6 C-10.66 5.34 -11.32 4.68 -12 4 C-7.81413519 0.81076967 -5.29441695 -0.50423019 0 0 Z " fill="#5D4466" transform="translate(915,425)"/>
<path d="M0 0 C0.33 0 0.66 0 1 0 C1 4.62 1 9.24 1 14 C-3 9 -3 9 -4 6 C-2.68 5.67 -1.36 5.34 0 5 C0 3.35 0 1.7 0 0 Z " fill="#4F385B" transform="translate(633,261)"/>
<path d="M0 0 C2.5654594 2.5654594 2.54046087 4.47686668 3 8 C1.02 8 -0.96 8 -3 8 C-1.125 1.125 -1.125 1.125 0 0 Z " fill="#59455D" transform="translate(470,263)"/>
<path d="M0 0 C0.33 0.66 0.66 1.32 1 2 C2.32 1.67 3.64 1.34 5 1 C6 4 6 4 5 7 C3.35 7 1.7 7 0 7 C0 4.69 0 2.38 0 0 Z " fill="#51335E" transform="translate(666,261)"/>
<path d="M0 0 C0.33 0 0.66 0 1 0 C2.04745167 5.23725835 2.04745167 5.23725835 2 8 C0.1875 10.5 0.1875 10.5 -2 12 C-2.66 12 -3.32 12 -4 12 C-2.66666667 8 -1.33333333 4 0 0 Z " fill="#594066" transform="translate(411,702)"/>
<path d="M0 0 C1.9789756 3.63616656 2.5251065 6.88425629 3 11 C1.02 11.99 1.02 11.99 -1 13 C-2.07310858 9.72814447 -1.89263102 7.57052408 -1.0625 4.25 C-0.86785156 3.45078125 -0.67320312 2.6515625 -0.47265625 1.828125 C-0.31667969 1.22484375 -0.16070312 0.6215625 0 0 Z " fill="#573C61" transform="translate(419,674)"/>
<path d="M0 0 C0.33 0 0.66 0 1 0 C1 5.28 1 10.56 1 16 C0.34 16.33 -0.32 16.66 -1 17 C-0.67 14.36 -0.34 11.72 0 9 C-0.66 9 -1.32 9 -2 9 C-2.125 5.625 -2.125 5.625 -2 2 C-1.34 1.34 -0.68 0.68 0 0 Z " fill="#4C2958" transform="translate(555,516)"/>
<path d="M0 0 C0.33 0 0.66 0 1 0 C2.10228696 4.40914783 2.07654536 8.48382401 2 13 C-1 11 -1 11 -1.58203125 8.90625 C-1.65808594 8.1121875 -1.73414063 7.318125 -1.8125 6.5 C-1.90144531 5.7059375 -1.99039063 4.911875 -2.08203125 4.09375 C-2 2 -2 2 0 0 Z " fill="#4C3257" transform="translate(548,467)"/>
<path d="M0 0 C4.29 0 8.58 0 13 0 C13.33 0.99 13.66 1.98 14 3 C13.32453125 2.89300781 12.6490625 2.78601563 11.953125 2.67578125 C11.06109375 2.55589844 10.1690625 2.43601562 9.25 2.3125 C7.92742188 2.12107422 7.92742188 2.12107422 6.578125 1.92578125 C3.44323483 2.01602809 2.28176413 2.92615363 0 5 C0 3.35 0 1.7 0 0 Z " fill="#4D3859" transform="translate(572,349)"/>
<path d="M0 0 C0.33 0 0.66 0 1 0 C1 4.95 1 9.9 1 15 C-3.5 9.375 -3.5 9.375 -5 6 C-3.02 6.99 -3.02 6.99 -1 8 C-0.67 5.36 -0.34 2.72 0 0 Z " fill="#664C69" transform="translate(520,260)"/>
<path d="M0 0 C0.33 0 0.66 0 1 0 C1 5.94 1 11.88 1 18 C1.66 18.33 2.32 18.66 3 19 C0.36 19 -2.28 19 -5 19 C-4.01 18.67 -3.02 18.34 -2 18 C-2 17.34 -2 16.68 -2 16 C-1.34 16 -0.68 16 0 16 C0 10.72 0 5.44 0 0 Z " fill="#F7E1FA" transform="translate(592,261)"/>
<path d="M0 0 C2.31 0.66 4.62 1.32 7 2 C7 4.97 7 7.94 7 11 C6.34 10.67 5.68 10.34 5 10 C4.71125 9.05125 4.4225 8.1025 4.125 7.125 C2.91362456 3.76006822 2.00093318 2.80055991 -1 1 C-0.67 0.67 -0.34 0.34 0 0 Z " fill="#62456C" transform="translate(182,743)"/>
<path d="M0 0 C0.33 0 0.66 0 1 0 C1.24887295 2.10192697 1.4734719 4.20673964 1.6875 6.3125 C1.81511719 7.48425781 1.94273437 8.65601563 2.07421875 9.86328125 C2 13 2 13 0.51953125 14.91796875 C0.01808594 15.27503906 -0.48335937 15.63210938 -1 16 C-1.11138159 10.54230189 -0.91657981 5.38490641 0 0 Z " fill="#60426A" transform="translate(586,728)"/>
<path d="M0 0 C3 4 3 4 3.07421875 6.359375 C2.94660156 7.14828125 2.81898438 7.9371875 2.6875 8.75 C2.50767578 9.94882812 2.50767578 9.94882812 2.32421875 11.171875 C2.21722656 11.77515625 2.11023438 12.3784375 2 13 C1.01 13.33 0.02 13.66 -1 14 C-0.67 9.38 -0.34 4.76 0 0 Z " fill="#5E4267" transform="translate(601,702)"/>
<path d="M0 0 C0.66 0 1.32 0 2 0 C2.08333357 4.8333472 1.95261487 9.23692563 1 14 C0.67 14 0.34 14 0 14 C-0.19393875 11.85473901 -0.37998676 9.70876323 -0.5625 7.5625 C-0.71912109 5.77005859 -0.71912109 5.77005859 -0.87890625 3.94140625 C-0.91886719 2.97074219 -0.95882812 2.00007812 -1 1 C-0.67 0.67 -0.34 0.34 0 0 Z " fill="#4E345B" transform="translate(860,532)"/>
<path d="M0 0 C0.99 0.33 1.98 0.66 3 1 C3 3.97 3 6.94 3 10 C3.66 10 4.32 10 5 10 C5 10.66 5 11.32 5 12 C2.525 11.01 2.525 11.01 0 10 C0 6.7 0 3.4 0 0 Z " fill="#4B2F56" transform="translate(898,727)"/>
<path d="M0 0 C-0.33 2.97 -0.66 5.94 -1 9 C-1.99 9.33 -2.98 9.66 -4 10 C-3.67 8.02 -3.34 6.04 -3 4 C-3.66 4 -4.32 4 -5 4 C-3.93512292 1.87024584 -2.70644278 0 0 0 Z " fill="#4D3057" transform="translate(927,727)"/>
<path d="M0 0 C1.98 0.66 3.96 1.32 6 2 C6 2.99 6 3.98 6 5 C2.535 6.485 2.535 6.485 -1 8 C-1 7.34 -1 6.68 -1 6 C-0.34 5.67 0.32 5.34 1 5 C1 4.34 1 3.68 1 3 C0.34 2.34 -0.32 1.68 -1 1 C-0.67 0.67 -0.34 0.34 0 0 Z " fill="#543C5C" transform="translate(187,610)"/>
<path d="M0 0 C0.66 0.33 1.32 0.66 2 1 C1.67 1.33 1.34 1.66 1 2 C0.76924918 3.34747084 0.58846937 4.70377565 0.4375 6.0625 C0.293125 7.361875 0.14875 8.66125 0 10 C-0.33 9.01 -0.66 8.02 -1 7 C-1.33 7.66 -1.66 8.32 -2 9 C-2.66 9 -3.32 9 -4 9 C-4.33 8.01 -4.66 7.02 -5 6 C-4.34 6 -3.68 6 -3 6 C-3.33 4.68 -3.66 3.36 -4 2 C-2.125 0.9375 -2.125 0.9375 0 0 Z " fill="#4B2B59" transform="translate(77,264)"/>
<path d="M0 0 C8.03816794 -0.61832061 8.03816794 -0.61832061 11.625 1.6875 C13 4 13 4 12.75 6.75 C12.5025 7.4925 12.255 8.235 12 9 C8.125 4.25 8.125 4.25 7 2 C4.67843403 1.59270772 2.3431213 1.25561323 0 1 C0 0.67 0 0.34 0 0 Z " fill="#62486F" transform="translate(617,258)"/>
<path d="M0 0 C2.475 0.99 2.475 0.99 5 2 C1.25 5 1.25 5 -1 5 C-1 5.66 -1 6.32 -1 7 C-1.99 6.67 -2.98 6.34 -4 6 C-3.67 4.68 -3.34 3.36 -3 2 C-2.01 2 -1.02 2 0 2 C0 1.34 0 0.68 0 0 Z " fill="#F6F0F3" transform="translate(188,664)"/>
<path d="M0 0 C4.35535069 1.16142685 6.64619703 2.07699505 9 6 C8.01 6.495 8.01 6.495 7 7 C4.8359375 6.22265625 4.8359375 6.22265625 2.375 5.0625 C1.55773437 4.68222656 0.74046875 4.30195312 -0.1015625 3.91015625 C-0.72804687 3.60980469 -1.35453125 3.30945313 -2 3 C-1.34 2.67 -0.68 2.34 0 2 C0 1.34 0 0.68 0 0 Z " fill="#F1E7F2" transform="translate(174,521)"/>
<path d="M0 0 C0.33 0 0.66 0 1 0 C1 4.29 1 8.58 1 13 C0.34 13 -0.32 13 -1 13 C-1 12.34 -1 11.68 -1 11 C-1.66 11 -2.32 11 -3 11 C-3.33 11.66 -3.66 12.32 -4 13 C-3.42655063 10.13275314 -3.1385485 9.1385485 -1 7 C-0.59952556 4.67724823 -0.2602896 2.34260643 0 0 Z " fill="#4A2F56" transform="translate(661,265)"/>
<path d="M0 0 C0.66 0 1.32 0 2 0 C2 1.32 2 2.64 2 4 C-4.27 4 -10.54 4 -17 4 C-17 3.67 -17 3.34 -17 3 C-15.85660156 2.95101562 -14.71320313 2.90203125 -13.53515625 2.8515625 C-12.04424527 2.77654811 -10.55336108 2.70099972 -9.0625 2.625 C-8.30775391 2.5940625 -7.55300781 2.563125 -6.77539062 2.53125 C-4.84492605 2.4273685 -2.92057919 2.22104386 -1 2 C-0.67 1.34 -0.34 0.68 0 0 Z " fill="#4C3054" transform="translate(311,739)"/>
<path d="M0 0 C0.33 0.66 0.66 1.32 1 2 C0.67 2.66 0.34 3.32 0 4 C0.66 4.33 1.32 4.66 2 5 C-0.59496258 8.00469351 -1.9214699 8.36858796 -6 10 C-4.02 6.7 -2.04 3.4 0 0 Z " fill="#5E4466" transform="translate(403,720)"/>
<path d="M0 0 C3.65316671 1.24976756 4.78065836 1.67098753 7 5 C5.35 5.66 3.7 6.32 2 7 C2 6.01 2 5.02 2 4 C1.01 3.67 0.02 3.34 -1 3 C-0.67 2.01 -0.34 1.02 0 0 Z " fill="#5C4469" transform="translate(182,687)"/>
<path d="M0 0 C3.40208828 3.40208828 3.05433827 7.77178592 3.0625 12.375 C3.041875 13.57125 3.02125 14.7675 3 16 C2.67 16 2.34 16 2 16 C0.13216954 10.51324804 -0.2358396 5.77807024 0 0 Z " fill="#6A5173" transform="translate(575,656)"/>
<path d="M0 0 C2.99324263 1.0975223 3.84610901 1.67682892 5.25 4.625 C5.4975 5.40875 5.745 6.1925 6 7 C3 7 3 7 0.8125 5 C0.214375 4.34 -0.38375 3.68 -1 3 C-0.67 2.01 -0.34 1.02 0 0 Z " fill="#553B62" transform="translate(930,424)"/>
<path d="M0 0 C0.66 0 1.32 0 2 0 C2 1.65 2 3.3 2 5 C-3.28 5 -8.56 5 -14 5 C-14 4.67 -14 4.34 -14 4 C-7.565 3.505 -7.565 3.505 -1 3 C-0.67 2.01 -0.34 1.02 0 0 Z " fill="#EDDCF1" transform="translate(770,744)"/>
<path d="M0 0 C0 0.99 0 1.98 0 3 C-5.28 3 -10.56 3 -16 3 C-15.67 2.34 -15.34 1.68 -15 1 C-14.22914063 1.01160156 -13.45828125 1.02320313 -12.6640625 1.03515625 C-11.15972656 1.04869141 -11.15972656 1.04869141 -9.625 1.0625 C-8.12839844 1.07990234 -8.12839844 1.07990234 -6.6015625 1.09765625 C-4.04433149 1.00166409 -2.49131904 0 0 0 Z " fill="#4B3155" transform="translate(470,741)"/>
<path d="M0 0 C4 4.625 4 4.625 4 8 C3.01 8.66 2.02 9.32 1 10 C0.63720544 8.71073008 0.28503302 7.41846728 -0.0625 6.125 C-0.35833984 5.04605469 -0.35833984 5.04605469 -0.66015625 3.9453125 C-1 2 -1 2 0 0 Z " fill="#583B64" transform="translate(883,733)"/>
<path d="M0 0 C0.33 0 0.66 0 1 0 C1 1.65 1 3.3 1 5 C1.66 5 2.32 5 3 5 C3.37849614 9.54195365 2.9891703 10.0144396 0 14 C0 9.38 0 4.76 0 0 Z " fill="#5E4469" transform="translate(603,685)"/>
<path d="M0 0 C0.66 0 1.32 0 2 0 C3.3726682 1.97321053 4.70427617 3.97543152 6 6 C6.66 6.66 7.32 7.32 8 8 C7.01 8.33 6.02 8.66 5 9 C4.34 8.01 3.68 7.02 3 6 C2.01 6 1.02 6 0 6 C0 4.02 0 2.04 0 0 Z " fill="#573B64" transform="translate(140,504)"/>
<path d="M0 0 C0.99 0 1.98 0 3 0 C5.21538462 5.41538462 5.21538462 5.41538462 4.125 8.375 C3.75375 8.91125 3.3825 9.4475 3 10 C1.11608215 6.73454239 0.50712033 3.71888239 0 0 Z " fill="#54395D" transform="translate(783,482)"/>
<path d="M0 0 C0.66 0 1.32 0 2 0 C2.33 1.98 2.66 3.96 3 6 C2.01 6.33 1.02 6.66 0 7 C-0.66 7.66 -1.32 8.32 -2 9 C-1.125 2.25 -1.125 2.25 0 0 Z " fill="#5C3F67" transform="translate(644,389)"/>
<path d="M0 0 C0 0.99 0 1.98 0 3 C-3.63 3 -7.26 3 -11 3 C-11 2.34 -11 1.68 -11 1 C-7.32589215 -0.17571451 -3.83070817 -0.07366746 0 0 Z " fill="#4D2E57" transform="translate(303,354)"/>
<path d="M0 0 C0.33 0 0.66 0 1 0 C1 3.96 1 7.92 1 12 C-1.24497221 9.75502779 -1.37003419 9.03972651 -1.75 6 C-1.84796875 5.29875 -1.9459375 4.5975 -2.046875 3.875 C-2 2 -2 2 0 0 Z " fill="#4D3453" transform="translate(819,616)"/>
<path d="M0 0 C0.33 1.32 0.66 2.64 1 4 C1.66 4 2.32 4 3 4 C3 6.64 3 9.28 3 12 C2.67 11.34 2.34 10.68 2 10 C1.34 10 0.68 10 0 10 C0 6.7 0 3.4 0 0 Z " fill="#4A2D58" transform="translate(603,588)"/>
<path d="M0 0 C0.66 0.33 1.32 0.66 2 1 C1.67 4.63 1.34 8.26 1 12 C0.34 12 -0.32 12 -1 12 C-1.14285714 3.42857143 -1.14285714 3.42857143 0 0 Z " fill="#573962" transform="translate(614,545)"/>
<path d="M0 0 C0.33 0 0.66 0 1 0 C1 1.98 1 3.96 1 6 C0.34 6 -0.32 6 -1 6 C-1.66 7.98 -2.32 9.96 -3 12 C-3.33 12 -3.66 12 -4 12 C-4 9.03 -4 6.06 -4 3 C-3.01 3.495 -3.01 3.495 -2 4 C-1.34 2.68 -0.68 1.36 0 0 Z " fill="#5F3E6D" transform="translate(558,532)"/>
<path d="M0 0 C0.99 0 1.98 0 3 0 C3.25 7.5 3.25 7.5 1 12 C0.67 8.04 0.34 4.08 0 0 Z " fill="#5B3E63" transform="translate(585,456)"/>
<path d="M0 0 C2.65269897 2.47585238 4.68010103 4.59026101 6 8 C6 8.99 6 9.98 6 11 C5.34 11 4.68 11 4 11 C1 5.25 1 5.25 1 3 C0.34 2.67 -0.32 2.34 -1 2 C-0.67 1.34 -0.34 0.68 0 0 Z " fill="#573C63" transform="translate(920,429)"/>
<path d="M0 0 C2.64465038 3.1254959 3.84414715 6.08788267 5 10 C4.01 10 3.02 10 2 10 C1.01 7.03 0.02 4.06 -1 1 C-0.67 0.67 -0.34 0.34 0 0 Z " fill="#F2E8F4" transform="translate(402,376)"/>
<path d="M0 0 C0.33 0 0.66 0 1 0 C1.22142255 1.95689659 1.4267568 3.91561952 1.625 5.875 C1.74101563 6.96554687 1.85703125 8.05609375 1.9765625 9.1796875 C1.98429688 10.11039062 1.99203125 11.04109375 2 12 C1.34 12.66 0.68 13.32 0 14 C-0.66 10.7 -1.32 7.4 -2 4 C-1.34 4 -0.68 4 0 4 C0 2.68 0 1.36 0 0 Z " fill="#62476F" transform="translate(534,364)"/>
<path d="M0 0 C0.33 0 0.66 0 1 0 C1 3.63 1 7.26 1 11 C1.66 11.33 2.32 11.66 3 12 C3 13.32 3 14.64 3 16 C2.01 16 1.02 16 0 16 C0 10.72 0 5.44 0 0 Z " fill="#4A3154" transform="translate(557,262)"/>
<path d="M0 0 C0.66 0.99 1.32 1.98 2 3 C1.125 5.6875 1.125 5.6875 0 8 C0.99 8.33 1.98 8.66 3 9 C0.36 9 -2.28 9 -5 9 C-4.01 8.67 -3.02 8.34 -2 8 C-1.7834375 6.576875 -1.7834375 6.576875 -1.5625 5.125 C-1 2 -1 2 0 0 Z " fill="#EBD4EF" transform="translate(464,271)"/>
<path d="M0 0 C0.33 0 0.66 0 1 0 C1 3.63 1 7.26 1 11 C-0.32 11.33 -1.64 11.66 -3 12 C-2.01 8.04 -1.02 4.08 0 0 Z " fill="#4D2F56" transform="translate(505,267)"/>
<path d="M0 0 C0.33 0.66 0.66 1.32 1 2 C1.99 2 2.98 2 4 2 C4 2.66 4 3.32 4 4 C4.66 4.33 5.32 4.66 6 5 C5.67 5.66 5.34 6.32 5 7 C3.35 7 1.7 7 0 7 C0 4.69 0 2.38 0 0 Z " fill="#4D315B" transform="translate(350,736)"/>
<path d="M0 0 C1.32 0.66 2.64 1.32 4 2 C3.34 3.98 2.68 5.96 2 8 C1.67 7.34 1.34 6.68 1 6 C0.34 6 -0.32 6 -1 6 C-0.67 4.02 -0.34 2.04 0 0 Z " fill="#4F2F59" transform="translate(404,718)"/>
<path d="M0 0 C0.66 0.33 1.32 0.66 2 1 C1.34 1.66 0.68 2.32 0 3 C0.33 3.66 0.66 4.32 1 5 C-1.97 5 -4.94 5 -8 5 C-5.45378681 2.99940392 -3.01962385 1.20784954 0 0 Z " fill="#F1E8F3" transform="translate(178,697)"/>
<path d="M0 0 C1.13732426 3.40401948 0.83989957 5.77456664 0.0625 9.25 C-0.13214844 10.14203125 -0.32679688 11.0340625 -0.52734375 11.953125 C-0.68332031 12.62859375 -0.83929687 13.3040625 -1 14 C-1.33 14 -1.66 14 -2 14 C-2 10.04 -2 6.08 -2 2 C-1.34 2 -0.68 2 0 2 C0 1.34 0 0.68 0 0 Z " fill="#EEDEF0" transform="translate(954,687)"/>
<path d="M0 0 C0.99 0.33 1.98 0.66 3 1 C3 1.66 3 2.32 3 3 C1.04783565 4.95216435 -0.53199953 5.84826645 -3 7 C-3.33 6.01 -3.66 5.02 -4 4 C-3.34 4 -2.68 4 -2 4 C-1.34 2.68 -0.68 1.36 0 0 Z " fill="#F6F1F7" transform="translate(172,577)"/>
<path d="M0 0 C0.66 0.33 1.32 0.66 2 1 C1.67 1.66 1.34 2.32 1 3 C1.66 3.66 2.32 4.32 3 5 C1.02 5.66 -0.96 6.32 -3 7 C-3.1875 4.625 -3.1875 4.625 -3 2 C-2.01 1.34 -1.02 0.68 0 0 Z " fill="#F6F0F7" transform="translate(198,553)"/>
<path d="M0 0 C0.33 0 0.66 0 1 0 C1.2493357 1.60115576 1.47378648 3.20620159 1.6875 4.8125 C1.87892578 6.15248047 1.87892578 6.15248047 2.07421875 7.51953125 C2 10 2 10 -1 13 C-0.67 8.71 -0.34 4.42 0 0 Z " fill="#634B6B" transform="translate(627,502)"/>
<path d="M0 0 C0.66 0.33 1.32 0.66 2 1 C1.67 1.99 1.34 2.98 1 4 C2.98 4 4.96 4 7 4 C7 4.66 7 5.32 7 6 C3.7 6 0.4 6 -3 6 C-3.33 5.01 -3.66 4.02 -4 3 C-3.34 2.34 -2.68 1.68 -2 1 C-2 1.66 -2 2.32 -2 3 C-1.34 3 -0.68 3 0 3 C0 2.01 0 1.02 0 0 Z " fill="#6F4F7B" transform="translate(461,275)"/>
<path d="M0 0 C1.65 1.32 3.3 2.64 5 4 C4.67 4.99 4.34 5.98 4 7 C3.34 6.67 2.68 6.34 2 6 C1.67 7.32 1.34 8.64 1 10 C0 9 0 9 -0.09765625 6.93359375 C-0.08605469 6.10988281 -0.07445312 5.28617187 -0.0625 4.4375 C-0.05347656 3.61121094 -0.04445313 2.78492188 -0.03515625 1.93359375 C-0.02355469 1.29550781 -0.01195312 0.65742188 0 0 Z " fill="#4B3355" transform="translate(509,266)"/>
<path d="M0 0 C2.97 0 5.94 0 9 0 C9 0.33 9 0.66 9 1 C7.329375 1.4021875 7.329375 1.4021875 5.625 1.8125 C1.78159049 2.65809019 1.78159049 2.65809019 0 6 C-0.66 6 -1.32 6 -2 6 C-1.34 4.02 -0.68 2.04 0 0 Z " fill="#E5CEEB" transform="translate(546,259)"/>
<path d="M0 0 C0.99 0.66 1.98 1.32 3 2 C2.01 4.97 1.02 7.94 0 11 C-0.66 10.67 -1.32 10.34 -2 10 C-1.34 6.7 -0.68 3.4 0 0 Z " fill="#573A61" transform="translate(953,696)"/>
<path d="M0 0 C1.98 0.99 3.96 1.98 6 3 C5.01 3.99 4.02 4.98 3 6 C0.525 5.01 0.525 5.01 -2 4 C-1.34 3.67 -0.68 3.34 0 3 C0 2.01 0 1.02 0 0 Z " fill="#F2E9F4" transform="translate(203,672)"/>
<path d="M0 0 C-3.1254959 2.64465038 -6.08788267 3.84414715 -10 5 C-10 4.01 -10 3.02 -10 2 C-6.49223216 0.39644899 -3.85645121 -0.22036864 0 0 Z " fill="#583B61" transform="translate(185,618)"/>
<path d="M0 0 C0.33 1.32 0.66 2.64 1 4 C-2.3 4 -5.6 4 -9 4 C-6.43425105 1.43425105 -3.68548192 0 0 0 Z " fill="#5C4269" transform="translate(210,554)"/>
<path d="M0 0 C0.66 0.99 1.32 1.98 2 3 C0.66666667 9.33333333 0.66666667 9.33333333 -2 12 C-1.85831863 10.56208484 -1.71148957 9.1246763 -1.5625 7.6875 C-1.48128906 6.88699219 -1.40007812 6.08648438 -1.31640625 5.26171875 C-1 3 -1 3 0 0 Z " fill="#573961" transform="translate(223,534)"/>
<path d="M0 0 C1.0625 1.875 1.0625 1.875 2 4 C1.67 4.66 1.34 5.32 1 6 C-1.9375 5.625 -1.9375 5.625 -5 5 C-5.33 4.34 -5.66 3.68 -6 3 C-4.02 2.01 -2.04 1.02 0 0 Z " fill="#F3EAF3" transform="translate(190,537)"/>
<path d="M0 0 C1.98 0.495 1.98 0.495 4 1 C4.33 2.32 4.66 3.64 5 5 C4.01 5.495 4.01 5.495 3 6 C0.875 5.0625 0.875 5.0625 -1 4 C-0.67 2.68 -0.34 1.36 0 0 Z " fill="#F7EDF7" transform="translate(163,515)"/>
<path d="M0 0 C0.33 0 0.66 0 1 0 C1.25 7.625 1.25 7.625 -1 11 C-1.66 11 -2.32 11 -3 11 C-2.25 3.375 -2.25 3.375 0 0 Z " fill="#50365C" transform="translate(627,450)"/>
<path d="M0 0 C2.62187494 1.04874998 3.79371361 1.64931313 5.25 4.125 C5.4975 4.74375 5.745 5.3625 6 6 C5.01 6.33 4.02 6.66 3 7 C2.34 6.34 1.68 5.68 1 5 C0.34 5 -0.32 5 -1 5 C-0.67 3.35 -0.34 1.7 0 0 Z " fill="#EEE5F0" transform="translate(394,366)"/>
<path d="M0 0 C0.66 0 1.32 0 2 0 C1.25 2.9375 1.25 2.9375 0 6 C-2 7 -2 7 -4 7 C-4.66 6.34 -5.32 5.68 -6 5 C-5.195625 4.54625 -4.39125 4.0925 -3.5625 3.625 C-0.91143428 2.25274335 -0.91143428 2.25274335 0 0 Z " fill="#ECD5EF" transform="translate(679,273)"/>
<path d="M0 0 C-0.33 1.32 -0.66 2.64 -1 4 C-3.375 4.625 -3.375 4.625 -6 5 C-6.66 4.34 -7.32 3.68 -8 3 C-2.25 0 -2.25 0 0 0 Z " fill="#583B64" transform="translate(171,725)"/>
<path d="M0 0 C0.99 0 1.98 0 3 0 C2.1875 2.4375 2.1875 2.4375 1 5 C0.01 5.33 -0.98 5.66 -2 6 C-2 2 -2 2 0 0 Z " fill="#4B3158" transform="translate(212,706)"/>
<path d="M0 0 C3.3125 -0.25 3.3125 -0.25 7 0 C8.9375 2 8.9375 2 10 4 C9.01 4.495 9.01 4.495 8 5 C6.0546875 4.22265625 6.0546875 4.22265625 3.875 3.0625 C3.15054688 2.68222656 2.42609375 2.30195312 1.6796875 1.91015625 C1.12539062 1.60980469 0.57109375 1.30945313 0 1 C0 0.67 0 0.34 0 0 Z " fill="#5E4669" transform="translate(196,668)"/>
<path d="M0 0 C2.3125 -0.25 2.3125 -0.25 5 0 C6.8125 2 6.8125 2 8 4 C5 5 5 5 1.8125 3.5625 C0.884375 3.046875 -0.04375 2.53125 -1 2 C-0.67 1.34 -0.34 0.68 0 0 Z " fill="#EEE2F0" transform="translate(159,594)"/>
<path d="M0 0 C0.99 0.33 1.98 0.66 3 1 C2.625 3.9375 2.625 3.9375 2 7 C1.01 7.495 1.01 7.495 0 8 C-0.38063221 5.6739143 -0.71269945 3.33944736 -1 1 C-0.67 0.67 -0.34 0.34 0 0 Z " fill="#593B64" transform="translate(777,452)"/>
<path d="M0 0 C0.66 0 1.32 0 2 0 C2.33 1.65 2.66 3.3 3 5 C3.66 4.67 4.32 4.34 5 4 C4.34 5.98 3.68 7.96 3 10 C1.00902154 7.01353231 0.05875074 4.40312738 -1 1 C-0.67 0.67 -0.34 0.34 0 0 Z " fill="#EFE7F3" transform="translate(924,430)"/>
<path d="M0 0 C2 2 2 2 2.125 4.625 C2.08375 5.40875 2.0425 6.1925 2 7 C1.01 7 0.02 7 -1 7 C-1.33 5.02 -1.66 3.04 -2 1 C-1.34 0.67 -0.68 0.34 0 0 Z " fill="#563A63" transform="translate(643,399)"/>
<path d="M0 0 C0.66 0.33 1.32 0.66 2 1 C-2.02167317 3.96837781 -5.00088076 5.52389341 -10 6 C-7.31100548 2.67830089 -3.94687492 1.43522725 0 0 Z " fill="#5E4368" transform="translate(666,350)"/>
<path d="M0 0 C5.94 0.99 5.94 0.99 12 2 C12 2.33 12 2.66 12 3 C7.05 3 2.1 3 -3 3 C-2.01 2.67 -1.02 2.34 0 2 C0 1.34 0 0.68 0 0 Z " fill="#FAE8FB" transform="translate(663,277)"/>
<path d="M0 0 C0.66 0.33 1.32 0.66 2 1 C1.34 2.65 0.68 4.3 0 6 C-0.66 6 -1.32 6 -2 6 C-2 6.66 -2 7.32 -2 8 C-2.66 8 -3.32 8 -4 8 C-2.87548273 5.0280615 -1.77706209 2.66559313 0 0 Z " fill="#E5D9E9" transform="translate(149,714)"/>
<path d="M0 0 C0.33 0 0.66 0 1 0 C1.25 7.625 1.25 7.625 -1 11 C-2.60080151 6.99799622 -1.29279692 3.95443764 0 0 Z " fill="#E0D0E5" transform="translate(218,688)"/>
<path d="M0 0 C1.42944945 2.35438733 2.08661261 3.48032433 1.625 6.25 C1.41875 6.8275 1.2125 7.405 1 8 C0.01 8 -0.98 8 -2 8 C-1.125 1.125 -1.125 1.125 0 0 Z " fill="#EEE3F0" transform="translate(787,500)"/>
<path d="M0 0 C0.33 0 0.66 0 1 0 C1.31563182 5.26053037 0.66590937 8.44573816 -2 13 C-3.18771723 9.57056481 -2.80226223 7.62215325 -1.5625 4.25 C-1.27503906 3.45078125 -0.98757813 2.6515625 -0.69140625 1.828125 C-0.46324219 1.22484375 -0.23507812 0.6215625 0 0 Z " fill="#695173" transform="translate(830,442)"/>
<path d="M0 0 C1.32 0.66 2.64 1.32 4 2 C4.33 1.34 4.66 0.68 5 0 C4.6875 1.875 4.6875 1.875 4 4 C3.01 4.66 2.02 5.32 1 6 C0.34 5.67 -0.32 5.34 -1 5 C-0.67 3.35 -0.34 1.7 0 0 Z " fill="#5B3667" transform="translate(922,440)"/>
<path d="M0 0 C0.33 0.66 0.66 1.32 1 2 C-2.28804981 4.91227269 -4.59885603 6.49701212 -9 7 C-6.19195732 4.03595495 -3.81684226 1.55500981 0 0 Z " fill="#EDE1EF" transform="translate(900,423)"/>
<path d="M0 0 C2.375 0.6875 2.375 0.6875 5 2 C6.3125 4.625 6.3125 4.625 7 7 C6.34 7 5.68 7 5 7 C4.67 6.34 4.34 5.68 4 5 C3.34 5 2.68 5 2 5 C1.34 3.35 0.68 1.7 0 0 Z " fill="#4D3056" transform="translate(624,353)"/>
<path d="M0 0 C0.99 0 1.98 0 3 0 C3.66 2.64 4.32 5.28 5 8 C4.34 8 3.68 8 3 8 C2.67 6.68 2.34 5.36 2 4 C1.01 4.495 1.01 4.495 0 5 C-0.5625 3.0625 -0.5625 3.0625 -1 1 C-0.67 0.67 -0.34 0.34 0 0 Z " fill="#F5E8F7" transform="translate(193,349)"/>
<path d="M0 0 C0.33 0 0.66 0 1 0 C1.66 2.97 2.32 5.94 3 9 C3.66 9 4.32 9 5 9 C4.67 9.99 4.34 10.98 4 12 C1 10 1 10 0 7 C-0.03954234 4.66700175 -0.04401732 2.33291811 0 0 Z " fill="#5C4566" transform="translate(423,266)"/>
<path d="M0 0 C1.32 0 2.64 0 4 0 C4.33 1.65 4.66 3.3 5 5 C2.69 4.34 0.38 3.68 -2 3 C-1.34 2.01 -0.68 1.02 0 0 Z " fill="#FBF5FC" transform="translate(922,743)"/>
<path d="M0 0 C-0.66 2.64 -1.32 5.28 -2 8 C-2.66 8 -3.32 8 -4 8 C-4 5.69 -4 3.38 -4 1 C-2 0 -2 0 0 0 Z " fill="#4F345B" transform="translate(606,696)"/>
<path d="M0 0 C0.33 0 0.66 0 1 0 C2.25 7.625 2.25 7.625 0 11 C-0.33 10.67 -0.66 10.34 -1 10 C-0.91036938 8.30858344 -0.75422324 6.62040398 -0.5625 4.9375 C-0.46066406 4.01839844 -0.35882812 3.09929688 -0.25390625 2.15234375 C-0.17011719 1.44207031 -0.08632813 0.73179687 0 0 Z " fill="#674F6F" transform="translate(956,680)"/>
<path d="M0 0 C0.99 0.33 1.98 0.66 3 1 C2.34 2.32 1.68 3.64 1 5 C-1.475 4.01 -1.475 4.01 -4 3 C-2.68 2.67 -1.36 2.34 0 2 C0 1.34 0 0.68 0 0 Z " fill="#F0E6F1" transform="translate(180,681)"/>
<path d="M0 0 C0.33 0 0.66 0 1 0 C0.67 3.96 0.34 7.92 0 12 C-2.11688496 7.76623008 -2.19576939 7.23954602 -1 3 C-0.67 2.01 -0.34 1.02 0 0 Z " fill="#F6E9F8" transform="translate(958,662)"/>
<path d="M0 0 C1.42944945 2.35438733 2.08661261 3.48032433 1.625 6.25 C1.41875 6.8275 1.2125 7.405 1 8 C0.01 7.67 -0.98 7.34 -2 7 C-1.34 4.69 -0.68 2.38 0 0 Z " fill="#583964" transform="translate(795,652)"/>
<path d="M0 0 C-0.625 1.9375 -0.625 1.9375 -2 4 C-5.125 4.75 -5.125 4.75 -8 5 C-8 4.34 -8 3.68 -8 3 C-2.25 0 -2.25 0 0 0 Z " fill="#F1E7F2" transform="translate(187,618)"/>
<path d="M0 0 C1.258125 -0.04125 2.51625 -0.0825 3.8125 -0.125 C4.52019531 -0.14820313 5.22789062 -0.17140625 5.95703125 -0.1953125 C8 0 8 0 11 2 C6.99799622 3.60080151 3.95443764 2.29279692 0 1 C0 0.67 0 0.34 0 0 Z " fill="#4A2E57" transform="translate(908,418)"/>
<path d="M0 0 C0.99 0 1.98 0 3 0 C2.74438677 2.3431213 2.40729228 4.67843403 2 7 C1.01 7.495 1.01 7.495 0 8 C0 5.36 0 2.72 0 0 Z " fill="#FBF3FD" transform="translate(420,264)"/>
<path d="M0 0 C0.66 0.33 1.32 0.66 2 1 C1.34 1.66 0.68 2.32 0 3 C-0.99 3 -1.98 3 -3 3 C-3 3.66 -3 4.32 -3 5 C-4.32 5.33 -5.64 5.66 -7 6 C-7.33 5.34 -7.66 4.68 -8 4 C-6.71349294 3.30289269 -5.42059335 2.61757124 -4.125 1.9375 C-3.40570313 1.55464844 -2.68640625 1.17179688 -1.9453125 0.77734375 C-1.30335938 0.52082031 -0.66140625 0.26429688 0 0 Z " fill="#60486A" transform="translate(203,711)"/>
<path d="M0 0 C0.99 0.33 1.98 0.66 3 1 C3.8125 2.9375 3.8125 2.9375 4 5 C3.34 5.66 2.68 6.32 2 7 C1.67 6.34 1.34 5.68 1 5 C0.01 5 -0.98 5 -2 5 C-1.34 3.35 -0.68 1.7 0 0 Z " fill="#583A68" transform="translate(218,696)"/>
<path d="M0 0 C0.33 0 0.66 0 1 0 C0.67 3.96 0.34 7.92 0 12 C-2.11688496 7.76623008 -2.19576939 7.23954602 -1 3 C-0.67 2.01 -0.34 1.02 0 0 Z " fill="#D6C6DC" transform="translate(605,669)"/>
<path d="M0 0 C1.88343932 3.76687864 2.22057835 5.02958963 2 9 C1.01 9 0.02 9 -1 9 C-0.67 6.03 -0.34 3.06 0 0 Z " fill="#62496B" transform="translate(421,664)"/>
<path d="M0 0 C0.99 0 1.98 0 3 0 C3 1.32 3 2.64 3 4 C1.02 4.99 1.02 4.99 -1 6 C-1.042721 4.33388095 -1.04063832 2.66617115 -1 1 C-0.67 0.67 -0.34 0.34 0 0 Z " fill="#FEF8FB" transform="translate(611,595)"/>
<path d="M0 0 C0.33 0.66 0.66 1.32 1 2 C-0.65 3.65 -2.3 5.3 -4 7 C-4.99 6.67 -5.98 6.34 -7 6 C-2.25 1.125 -2.25 1.125 0 0 Z " fill="#EDE2F0" transform="translate(150,556)"/>
<path d="M0 0 C0.66 0.33 1.32 0.66 2 1 C1.47731534 3.76276177 0.89130413 6.3260876 0 9 C-0.66 9 -1.32 9 -2 9 C-1.34 6.03 -0.68 3.06 0 0 Z " fill="#E6D7EC" transform="translate(875,459)"/>
<path d="M0 0 C2 3 2 3 2 5 C1.01 5 0.02 5 -1 5 C-1 5.66 -1 6.32 -1 7 C-1.66 7 -2.32 7 -3 7 C-2.25 2.25 -2.25 2.25 0 0 Z " fill="#EBE6E9" transform="translate(947,456)"/>
<path d="M0 0 C1.9375 0.6875 1.9375 0.6875 4 2 C4.75 4.625 4.75 4.625 5 7 C4.01 7.495 4.01 7.495 3 8 C1.02 4.535 1.02 4.535 -1 1 C-0.67 0.67 -0.34 0.34 0 0 Z " fill="#F1E4F4" transform="translate(376,360)"/>
<path d="M0 0 C5.75 -0.125 5.75 -0.125 8 1 C8 1.99 8 2.98 8 4 C6.68 3.67 5.36 3.34 4 3 C4 2.34 4 1.68 4 1 C2.68 1.33 1.36 1.66 0 2 C0 1.34 0 0.68 0 0 Z " fill="#5B4264" transform="translate(354,354)"/>
<path d="M0 0 C2.475 0.495 2.475 0.495 5 1 C5 1.66 5 2.32 5 3 C4.34 3 3.68 3 3 3 C2.67 4.32 2.34 5.64 2 7 C2 5.68 2 4.36 2 3 C1.34 3 0.68 3 0 3 C0 2.01 0 1.02 0 0 Z " fill="#EFEBF0" transform="translate(569,345)"/>
<path d="M0 0 C0.99 0.99 1.98 1.98 3 3 C0.03 3 -2.94 3 -6 3 C-6.33 2.34 -6.66 1.68 -7 1 C-3.6875 0.3125 -3.6875 0.3125 0 0 Z " fill="#4D3058" transform="translate(430,255)"/>
<path d="M0 0 C1.9451 2.91765 2.45276317 4.62537285 3 8 C2.01 8.33 1.02 8.66 0 9 C-1.125 2.25 -1.125 2.25 0 0 Z " fill="#5F476C" transform="translate(875,714)"/>
<path d="M0 0 C1.98 0.66 3.96 1.32 6 2 C4.625 3.5 4.625 3.5 3 5 C2.34 5 1.68 5 1 5 C0.67 3.35 0.34 1.7 0 0 Z " fill="#EAE3EE" transform="translate(205,705)"/>
<path d="M0 0 C-2.98646769 1.99097846 -5.59687262 2.94124926 -9 4 C-8.67 3.01 -8.34 2.02 -8 1 C-5.29120665 -0.35439668 -2.99066732 -0.06501451 0 0 Z " fill="#50365E" transform="translate(187,645)"/>
<path d="M0 0 C0.33 0.66 0.66 1.32 1 2 C2.32 2 3.64 2 5 2 C5 2.99 5 3.98 5 5 C-0.75 3.25 -0.75 3.25 -3 1 C-2.01 0.67 -1.02 0.34 0 0 Z " fill="#EFE1F2" transform="translate(176,601)"/>
<path d="M0 0 C1.43088528 2.86177057 0.59991697 4.93375773 0 8 C-0.99 8 -1.98 8 -3 8 C-3.36923077 3.44615385 -3.36923077 3.44615385 -1.5 1.1875 C-1.005 0.795625 -0.51 0.40375 0 0 Z " fill="#4C2C59" transform="translate(862,520)"/>
<path d="M0 0 C0.66 0.33 1.32 0.66 2 1 C1.625 3.4375 1.625 3.4375 1 6 C0.01 6.495 0.01 6.495 -1 7 C-1.33 5.02 -1.66 3.04 -2 1 C-1.34 0.67 -0.68 0.34 0 0 Z " fill="#553960" transform="translate(788,493)"/>
<path d="M0 0 C2.97 0.495 2.97 0.495 6 1 C5.67 2.32 5.34 3.64 5 5 C2.5 3.625 2.5 3.625 0 2 C0 1.34 0 0.68 0 0 Z " fill="#5D4068" transform="translate(381,352)"/>
<path d="M0 0 C0.99 0.33 1.98 0.66 3 1 C1.515 4.465 1.515 4.465 0 8 C-0.66 7.67 -1.32 7.34 -2 7 C-1.34 4.69 -0.68 2.38 0 0 Z " fill="#DEC8E3" transform="translate(468,261)"/>
</svg>
