<svg width="1080" height="1080" viewBox="0 0 1080 1080" fill="none" xmlns="http://www.w3.org/2000/svg">
<g clip-path="url(#clip0_1_2)">
<path d="M78 801C382.26 801 686.52 801 1000 801C1000 807.93 1000 814.86 1000 822C695.74 822 391.48 822 78 822C78 815.07 78 808.14 78 801Z" fill="#FEFDFD"/>
<path d="M292 348C300.92 347.953 309.839 347.918 318.759 347.896C322.902 347.886 327.045 347.872 331.188 347.849C335.195 347.827 339.202 347.815 343.209 347.81C344.728 347.807 346.248 347.799 347.768 347.789C363.726 347.679 379.708 348.741 391.938 360.312C392.991 361.513 394.012 362.744 395 364C395.545 364.659 396.091 365.317 396.652 365.996C428.169 407.232 430.323 474.203 431 524C431.011 524.788 431.022 525.576 431.033 526.388C431.373 552.333 430.895 578.12 429 604C428.88 605.65 428.88 605.65 428.757 607.334C428.263 613.899 427.655 620.449 427 627C426.852 628.565 426.852 628.565 426.7 630.162C423.161 667.211 417.402 713.061 388.262 739.582C376.3 749.032 360.189 749.298 345.711 749.195C344.156 749.192 342.601 749.189 341.046 749.187C336.985 749.179 332.925 749.16 328.864 749.137C324.708 749.117 320.551 749.108 316.395 749.098C308.263 749.076 300.131 749.042 292 749C292 747.02 292 745.04 292 743C298.93 743 305.86 743 313 743C313 614.63 313 486.26 313 354C306.07 354 299.14 354 292 354C292 352.02 292 350.04 292 348Z" fill="white"/>
<path d="M923.777 422.77C939.463 431.453 946.007 448.707 950.893 464.973C954.472 477.806 957.237 490.796 959 504C959.125 504.929 959.249 505.858 959.378 506.815C960.388 514.531 961.229 522.258 962 530C962.161 531.557 962.161 531.557 962.325 533.146C964.183 551.961 964.209 570.799 964.25 589.688C964.255 590.933 964.261 592.178 964.266 593.46C964.342 616.844 963.286 640.062 959.687 663.188C959.58 663.893 959.472 664.599 959.361 665.327C949.144 732.233 949.144 732.233 928.992 747.523C921.965 752.146 915.4 753.968 907 753C897.208 750.631 890.097 744.744 884.832 736.254C866.899 705.4 863.934 666.817 861.299 631.936C861.112 629.476 860.915 627.016 860.701 624.558C859.791 613.156 859.849 601.755 859.87 590.323C859.875 586.837 859.87 583.351 859.863 579.865C859.824 467.095 859.824 467.095 889.367 430.609C898.752 421.359 911.232 417.92 923.777 422.77Z" fill="white"/>
<path d="M167 349C176.57 349 186.14 349 196 349C200.197 361.592 200.197 361.592 198.495 367.857C197.862 370.597 197.849 373.158 197.823 375.971C197.81 377.176 197.797 378.382 197.784 379.624C197.777 380.925 197.769 382.226 197.762 383.566C197.758 384.233 197.754 384.9 197.749 385.586C197.729 389.12 197.714 392.653 197.705 396.187C197.694 399.809 197.659 403.43 197.62 407.052C197.593 409.861 197.585 412.669 197.582 415.477C197.574 417.452 197.548 419.428 197.521 421.403C197.556 436.044 202.612 446.379 212.563 456.875C219.4 464.255 223.095 472.798 223.161 482.835C223.171 484.01 223.18 485.185 223.19 486.396C223.195 487.663 223.199 488.929 223.203 490.234C223.209 491.542 223.215 492.849 223.22 494.195C223.231 496.963 223.237 499.73 223.24 502.497C223.246 506.025 223.27 509.553 223.298 513.081C223.321 516.466 223.323 519.85 223.328 523.234C223.34 524.493 223.353 525.752 223.366 527.048C223.343 535.866 222.415 543.501 216.204 550.25C210.952 554.421 204.472 556.865 198.375 559.562C196.261 560.517 194.15 561.476 192.039 562.436C190.662 563.061 189.284 563.683 187.905 564.302C182.598 566.692 177.411 569.265 172.245 571.949C170 573 170 573 168 573C170.79 576.428 174.659 577.959 178.563 579.801C179.309 580.16 180.056 580.518 180.825 580.888C183.214 582.036 185.607 583.175 188 584.312C219.231 599.217 219.231 599.217 222 606C223.407 611.149 223.633 615.432 221.313 620.312C220.57 621.559 219.802 622.791 219 624C218.464 624.866 217.928 625.733 217.375 626.625C210.092 633.908 199.686 637.536 190.375 641.562C182.602 644.927 175.043 648.237 168 653C171.331 654.838 174.665 656.671 178 658.5C178.999 659.048 179.997 659.596 181.026 660.161C186.891 663.361 192.796 666.411 198.813 669.312C206.869 673.266 214.791 677.308 218.41 685.965C219.895 691.087 219.582 695.242 217.438 700.125C209.607 713.834 189.359 718.125 175.606 723.536C169.403 725.962 169.403 725.962 163.383 728.797C161 730 161 730 159 730C159 730.66 159 731.32 159 732C159.522 732.251 160.044 732.503 160.582 732.762C164.316 734.674 167.931 736.794 171.56 738.898C175.074 740.928 178.618 742.812 182.25 744.625C185.466 746.373 185.908 746.806 187.563 750.312C187.707 751.199 187.851 752.086 188 753C187.34 753.66 186.68 754.32 186 755C178.687 754.805 172.933 752.654 166.313 749.688C165.402 749.296 164.491 748.905 163.553 748.502C156.488 745.408 150.506 742.509 146 736C144.085 730.254 143.634 723.232 146.023 717.578C152.602 708.202 164.034 703.82 174.006 698.973C177.016 697.504 180.007 696.002 183 694.5C184.667 693.667 186.333 692.833 188 692C184.31 687.471 179.444 685.656 174.25 683.312C143.676 669.082 143.676 669.082 139 658C138.355 652.998 138.309 647.248 140.691 642.695C148.242 632.914 162.267 628.318 173.115 623.33C176.645 621.703 180.16 620.044 183.673 618.383C186.779 616.915 189.889 615.457 193 614C189.35 610.854 185.788 608.782 181.406 606.793C180.778 606.504 180.15 606.216 179.503 605.919C177.505 605.002 175.503 604.094 173.5 603.188C165.858 599.717 158.241 596.215 150.781 592.363C149.761 591.836 148.741 591.31 147.689 590.767C142.784 587.544 140.333 583.663 139 578C138.531 572.096 139.093 568.313 142 563C145.504 559.045 149.207 556.495 153.875 554.125C154.53 553.784 155.185 553.443 155.86 553.092C160.933 550.477 166.082 548.038 171.269 545.66C178.605 542.293 185.798 538.643 193 535C189.797 532.402 186.476 530.662 182.758 528.891C182.153 528.601 181.548 528.311 180.925 528.012C178.994 527.087 177.059 526.168 175.125 525.25C170.716 523.148 166.31 521.039 161.91 518.919C160.615 518.296 159.32 517.675 158.023 517.057C156.097 516.136 154.177 515.204 152.258 514.27C151.133 513.727 150.007 513.184 148.848 512.624C142.934 509.251 140.816 504.42 139 498C137.754 482.698 140.478 468.322 150.285 456.168C151.816 454.504 153.361 452.854 154.922 451.219C165.263 440.177 165.429 426.448 165.223 412.105C165.212 410.503 165.203 408.9 165.195 407.297C165.173 403.113 165.134 398.928 165.089 394.744C165.019 388.031 164.964 381.319 164.927 374.606C164.91 372.276 164.881 369.946 164.85 367.615C164.84 366.179 164.83 364.742 164.821 363.305C164.807 362.06 164.794 360.815 164.78 359.532C165 356 165 356 167 349Z" fill="white"/>
<path d="M516 343C539.43 343 562.86 343 587 343C587 344.98 587 346.96 587 349C582.05 349 577.1 349 572 349C572.241 350.899 572.482 352.799 572.731 354.756C581.069 420.428 581.069 420.428 584.375 446.812C584.497 447.784 584.618 448.755 584.744 449.756C586.242 461.732 587.679 473.712 589.027 485.706C589.945 493.78 591.061 501.818 592.254 509.855C593.893 521.007 595.292 532.19 596.632 543.381C596.884 545.482 597.137 547.583 597.39 549.684C598.109 555.646 598.825 561.608 599.541 567.57C599.983 571.25 600.426 574.931 600.871 578.612C601.037 579.993 601.203 581.374 601.368 582.755C602.333 590.824 603.387 598.868 604.616 606.901C605.158 611.28 605.183 615.597 605 620C605.66 620 606.32 620 607 620C606.951 618.425 606.951 618.425 606.902 616.817C606.907 610.795 607.784 604.883 608.574 598.922C608.82 597.021 608.82 597.021 609.071 595.081C609.513 591.674 609.96 588.268 610.41 584.862C610.782 582.029 611.151 579.196 611.52 576.363C613.598 560.408 615.733 544.461 617.984 528.53C620.286 512.218 622.305 495.872 624.319 479.522C625.45 470.345 626.592 461.169 627.737 451.993C628.111 448.985 628.484 445.976 628.857 442.968C630.159 432.495 631.514 422.032 632.975 411.581C637.335 385.153 637.335 385.153 632.937 359.312C627.482 352.801 618.966 350.831 611 349C611 347.02 611 345.04 611 343C631.46 343 651.92 343 673 343C673 344.98 673 346.96 673 349C672.203 349.242 671.407 349.485 670.586 349.734C659.455 353.168 659.455 353.168 652 361.688C639.038 389.744 637.723 424.896 634.143 455.254C632.802 466.607 631.337 477.928 629.687 489.241C628.736 495.776 627.894 502.324 627.062 508.875C626.762 511.227 626.461 513.578 626.16 515.93C626.078 516.573 625.996 517.215 625.912 517.878C624.903 525.779 623.881 533.679 622.861 541.579C621.738 550.28 620.616 558.982 619.496 567.683C618.831 572.849 618.165 578.014 617.5 583.18C617.166 585.77 616.833 588.36 616.5 590.95C614.659 605.261 612.797 619.567 610.879 633.867C609.486 644.258 608.159 654.651 606.937 665.062C605.774 674.859 604.526 684.634 603.072 694.392C602.076 701.182 601.312 707.99 600.562 714.812C599.185 727.294 597.206 739.64 595 752C593.35 752 591.7 752 590 752C588.364 745.943 587.333 739.967 586.52 733.75C586.386 732.76 586.253 731.77 586.115 730.75C585.827 728.615 585.542 726.48 585.258 724.345C584.493 718.603 583.713 712.864 582.934 707.125C582.774 705.948 582.614 704.771 582.45 703.559C580.834 691.695 579.116 679.846 577.375 668C577.078 665.98 576.782 663.959 576.486 661.939C576.055 659.005 575.624 656.072 575.193 653.139C573.944 644.637 572.715 636.132 571.5 627.625C571.404 626.954 571.308 626.283 571.209 625.591C569.87 616.208 568.554 606.821 567.242 597.434C567.088 596.332 566.934 595.23 566.776 594.094C566.015 588.648 565.255 583.201 564.498 577.754C563.232 568.663 561.95 559.575 560.57 550.5C559.266 541.914 558.047 533.316 556.844 524.715C556.749 524.037 556.654 523.359 556.556 522.661C555.671 516.334 554.788 510.006 553.907 503.678C553.325 499.503 552.741 495.327 552.156 491.152C552.061 490.473 551.966 489.793 551.868 489.093C550.82 481.629 549.739 474.174 548.523 466.734C547.092 457.945 545.894 449.124 544.695 440.301C544.592 439.539 544.488 438.778 544.382 437.993C543.412 430.849 542.447 423.704 541.485 416.559C540.85 411.848 540.212 407.137 539.57 402.426C539.466 401.658 539.361 400.89 539.254 400.099C537.506 387.287 535.577 374.508 533.517 361.743C533.318 360.502 533.119 359.26 532.914 357.981C532.737 356.894 532.56 355.806 532.378 354.686C532 352 532 352 532 349C526.72 349 521.44 349 516 349C516 347.02 516 345.04 516 343Z" fill="white"/>
<path d="M349 354C368.061 354 368.061 354 375.473 361.168C390.197 378.83 388.13 414.244 388.796 436.29C388.901 439.757 389.007 443.224 389.121 446.69C390.124 477.812 390.198 508.927 390.188 540.062C390.188 542.06 390.188 544.058 390.188 546.056C390.188 578.211 390.095 610.357 389.125 642.5C389.105 643.172 389.085 643.844 389.065 644.536C388.624 659.459 387.918 674.361 387.016 689.262C386.976 689.939 386.936 690.616 386.894 691.313C384.74 727.302 384.74 727.302 373 738C365.752 743.531 357.879 743 349 743C349 614.63 349 486.26 349 354Z" fill="#1E1E1E"/>
<path d="M729 426C742.2 426 755.4 426 769 426C770.845 431.535 772.531 436.757 773.914 442.374C774.082 443.052 774.25 443.73 774.423 444.428C774.97 446.643 775.513 448.858 776.055 451.074C776.442 452.645 776.829 454.217 777.217 455.788C778.027 459.078 778.836 462.368 779.642 465.659C780.659 469.81 781.681 473.959 782.705 478.108C786.387 493.038 790.051 507.968 793.412 522.974C794.947 529.819 796.618 536.623 798.347 543.422C799.645 548.55 800.923 553.682 802.204 558.814C803.067 562.269 803.931 565.724 804.795 569.18C805.151 570.604 805.507 572.028 805.863 573.452C806.04 574.161 806.218 574.87 806.4 575.601C810.933 593.734 815.467 611.867 820 630C820.047 607.52 820.082 585.041 820.104 562.561C820.114 552.123 820.128 541.685 820.151 531.246C820.171 522.144 820.184 513.043 820.188 503.941C820.191 499.125 820.197 494.309 820.211 489.493C820.225 484.952 820.229 480.412 820.226 475.871C820.227 474.212 820.231 472.553 820.238 470.894C820.922 452.041 820.922 452.041 812.938 435.875C808.864 433.275 804.527 431.653 800 430C800 428.68 800 427.36 800 426C816.17 426 832.34 426 849 426C849 427.32 849 428.64 849 430C848.348 430.159 847.695 430.317 847.023 430.48C841.291 432.011 837.064 433.453 833 438C823.276 456.096 825.838 479.493 825.795 499.292C825.786 502.053 825.775 504.814 825.765 507.574C825.743 513.495 825.725 519.415 825.709 525.335C825.686 533.894 825.658 542.454 825.629 551.013C825.581 564.904 825.538 578.794 825.497 592.685C825.458 606.17 825.416 619.655 825.372 633.14C825.37 633.973 825.367 634.805 825.364 635.663C825.35 639.841 825.337 644.019 825.323 648.197C825.209 682.798 825.102 717.399 825 752C823.68 752 822.36 752 821 752C820.572 750.409 820.143 748.818 819.715 747.227C819.435 746.187 819.155 745.147 818.866 744.076C818.24 741.747 817.613 739.419 816.987 737.09C815.372 731.085 813.752 725.082 812.117 719.082C811.814 717.967 811.511 716.852 811.199 715.703C810.631 713.609 810.06 711.515 809.486 709.422C807.929 703.678 806.495 697.913 805.15 692.115C803.166 683.627 801.063 675.172 798.918 666.723C798.537 665.217 798.156 663.712 797.775 662.207C796.982 659.075 796.187 655.943 795.392 652.811C794.593 649.662 793.795 646.512 792.999 643.362C788.948 627.338 784.856 611.331 780.518 595.382C777.143 582.926 774.046 570.4 770.938 557.875C770.346 555.499 769.754 553.122 769.162 550.746C767.996 546.065 766.831 541.384 765.667 536.702C763.666 528.652 761.654 520.605 759.64 512.558C757.864 505.455 756.088 498.352 754.312 491.25C753.989 489.955 753.665 488.661 753.342 487.367C752.561 484.245 751.781 481.122 751 478C750.954 507.538 750.919 537.076 750.898 566.614C750.895 570.108 750.893 573.602 750.89 577.097C750.889 578.14 750.889 578.14 750.889 579.205C750.88 590.439 750.864 601.674 750.846 612.908C750.827 624.452 750.816 635.997 750.812 647.541C750.809 654.018 750.803 660.495 750.789 666.972C750.775 673.079 750.771 679.186 750.774 685.292C750.773 687.524 750.769 689.755 750.762 691.987C749.764 715.402 749.764 715.402 757 737C761.575 741.461 765.732 743.145 772 744C772 745.65 772 747.3 772 749C755.83 749 739.66 749 723 749C723 747.35 723 745.7 723 744C723.978 743.762 723.978 743.762 724.977 743.52C730.704 741.991 734.986 740.587 739 736C747.667 720.043 745.305 698.053 745.319 680.551C745.327 677.809 745.338 675.068 745.349 672.326C745.371 666.457 745.387 660.588 745.397 654.718C745.411 646.232 745.437 637.746 745.465 629.26C745.51 615.488 745.547 601.716 745.578 587.943C745.608 574.576 745.643 561.208 745.683 547.841C745.685 547.015 745.688 546.189 745.69 545.338C745.702 541.194 745.715 537.05 745.727 532.906C745.831 498.604 745.92 464.302 746 430C740.39 430 734.78 430 729 430C729 428.68 729 427.36 729 426Z" fill="#FCFAFC"/>
<path d="M915 425C920.538 427.712 923.574 431.456 926 437C930.597 451.993 930.166 468.279 930.555 483.832C930.576 484.655 930.597 485.477 930.618 486.325C931.276 513.211 931.15 540.112 931.129 567.004C931.125 572.166 931.126 577.328 931.13 582.49C931.154 612.427 931.106 642.364 930.673 672.299C930.637 674.845 930.603 677.391 930.571 679.938C930.409 692.659 930.054 705.354 929.211 718.05C929.152 719.091 929.093 720.132 929.032 721.204C928.376 729.973 926.56 739.645 920 746C915.738 748.518 911.842 748.783 907 748C900.163 744.13 898.49 738.033 896.348 730.797C889.011 700.166 892.84 663.724 892.866 632.327C892.868 628.083 892.866 623.838 892.864 619.594C892.862 612.481 892.865 605.367 892.87 598.254C892.875 590.143 892.873 582.032 892.868 573.921C892.863 566.834 892.863 559.746 892.865 552.659C892.867 548.48 892.867 544.301 892.864 540.122C892.852 522.939 892.979 505.771 893.454 488.594C893.474 487.857 893.493 487.119 893.514 486.359C894.869 437.453 894.869 437.453 903.402 428.305C907.124 425.266 910.21 424.425 915 425Z" fill="#1E1E1E"/>
<path d="M454 426C474.79 426 495.58 426 517 426C517 427.32 517 428.64 517 430C511.39 430 505.78 430 500 430C500 533.62 500 637.24 500 744C505.61 744 511.22 744 517 744C517 745.65 517 747.3 517 749C496.21 749 475.42 749 454 749C454 747.35 454 745.7 454 744C459.61 744 465.22 744 471 744C471 640.38 471 536.76 471 430C465.39 430 459.78 430 454 430C454 428.68 454 427.36 454 426Z" fill="#FDFCFD"/>
<path d="M651 426C671.79 426 692.58 426 714 426C714 427.32 714 428.64 714 430C708.39 430 702.78 430 697 430C697 533.62 697 637.24 697 744C702.61 744 708.22 744 714 744C714 745.65 714 747.3 714 749C693.21 749 672.42 749 651 749C651 747.68 651 746.36 651 745C656.61 745 662.22 745 668 745C668 641.05 668 537.1 668 430C662.39 430 656.78 430 651 430C651 428.68 651 427.36 651 426Z" fill="#FEFCFE"/>
<path d="M78 266C180.63 266 283.26 266 389 266C389 268.97 389 271.94 389 275C286.37 275 183.74 275 78 275C78 272.03 78 269.06 78 266Z" fill="#FDFBFD"/>
<path d="M703 266C801.01 266 899.02 266 1000 266C1000 268.97 1000 271.94 1000 275C901.99 275 803.98 275 703 275C703 272.03 703 269.06 703 266Z" fill="#FDF9FD"/>
<path d="M78 266C180.63 266 283.26 266 389 266C388.67 266.99 388.34 267.98 388 269C387.172 268.757 387.172 268.757 386.327 268.509C383.738 267.943 381.411 267.869 378.76 267.861C377.693 267.856 376.626 267.85 375.527 267.845C374.356 267.844 373.185 267.843 371.978 267.842C370.733 267.837 369.488 267.832 368.206 267.827C364.749 267.814 361.292 267.806 357.835 267.799C354.107 267.791 350.38 267.778 346.653 267.765C340.194 267.743 333.736 267.725 327.278 267.709C317.94 267.686 308.602 267.658 299.264 267.629C284.115 267.581 268.965 267.538 253.815 267.497C239.098 267.458 224.381 267.417 209.663 267.372C208.756 267.37 207.849 267.367 206.915 267.364C202.365 267.35 197.814 267.337 193.264 267.323C155.51 267.209 117.755 267.102 80 267C80.33 269.64 80.66 272.28 81 275C80.01 275 79.02 275 78 275C78 272.03 78 269.06 78 266Z" fill="#FBEDFE"/>
<path d="M660 259C665.94 259 671.88 259 678 259C678.66 260.98 679.32 262.96 680 265C679.34 265 678.68 265 678 265C677.629 264.526 677.257 264.051 676.875 263.562C673.898 261.082 670.811 261.312 667 261C666.67 263.31 666.34 265.62 666 268C667.65 268 669.3 268 671 268C671.33 266.68 671.66 265.36 672 264C672.33 264 672.66 264 673 264C673 267.3 673 270.6 673 274C672.34 273.67 671.68 273.34 671 273C671 272.01 671 271.02 671 270C669.35 270 667.7 270 666 270C666.33 272.64 666.66 275.28 667 278C671.654 278.325 674.234 277.798 678 275C678.33 274.34 678.66 273.68 679 273C679.66 273 680.32 273 681 273C679.125 278.875 679.125 278.875 678 280C676.657 280.086 675.31 280.107 673.965 280.098C673.156 280.094 672.347 280.091 671.514 280.088C670.664 280.08 669.813 280.071 668.938 280.062C668.083 280.058 667.229 280.053 666.35 280.049C664.233 280.037 662.117 280.019 660 280C660.66 279.67 661.32 279.34 662 279C662 272.73 662 266.46 662 260C661.34 259.67 660.68 259.34 660 259Z" fill="white"/>
<path d="M504 259C507.191 258.562 507.191 258.562 511 259C513.183 261.015 514.504 263.418 515.938 266C516.335 266.668 516.733 267.335 517.143 268.023C518.118 269.669 519.062 271.333 520 273C520.33 268.71 520.66 264.42 521 260C520.01 259.67 519.02 259.34 518 259C520.31 259 522.62 259 525 259C524.01 259.495 524.01 259.495 523 260C523 266.6 523 273.2 523 280C521.68 280 520.36 280 519 280C517.628 278.531 517.628 278.531 516.422 276.5C515.984 275.778 515.545 275.056 515.094 274.312C514.429 273.168 514.429 273.168 513.75 272C513.291 271.237 512.832 270.474 512.359 269.688C511.227 267.799 510.112 265.901 509 264C508.67 268.95 508.34 273.9 508 279C508.99 279.33 509.98 279.66 511 280C508.69 280 506.38 280 504 280C504.66 279.67 505.32 279.34 506 279C506 272.73 506 266.46 506 260C505.34 259.67 504.68 259.34 504 259Z" fill="white"/>
<path d="M617 259C620.191 258.562 620.191 258.562 624 259C626.183 261.015 627.504 263.418 628.938 266C629.335 266.668 629.733 267.335 630.143 268.023C631.118 269.669 632.062 271.333 633 273C633.33 268.71 633.66 264.42 634 260C633.01 259.67 632.02 259.34 631 259C633.31 259 635.62 259 638 259C637.01 259.495 637.01 259.495 636 260C636 266.6 636 273.2 636 280C632 279 632 279 630.628 277.418C630.23 276.753 629.832 276.088 629.422 275.402C628.984 274.684 628.545 273.965 628.094 273.225C627.429 272.092 627.429 272.092 626.75 270.938C626.291 270.179 625.832 269.42 625.359 268.639C624.229 266.766 623.113 264.884 622 263C621.67 268.28 621.34 273.56 621 279C621.99 279.33 622.98 279.66 624 280C621.69 280 619.38 280 617 280C617.66 279.67 618.32 279.34 619 279C619 272.73 619 266.46 619 260C618.34 259.67 617.68 259.34 617 259Z" fill="#F4E2F7"/>
<path d="M469 259C470.32 259 471.64 259 473 259C474.172 261.956 475.337 264.915 476.5 267.875C476.834 268.717 477.168 269.559 477.512 270.426C477.828 271.231 478.143 272.037 478.469 272.867C478.909 273.983 478.909 273.983 479.357 275.121C480 277 480 277 480 279C480.66 279.33 481.32 279.66 482 280C479.36 280 476.72 280 474 280C474.66 279.67 475.32 279.34 476 279C475.34 277.02 474.68 275.04 474 273C471.36 272.67 468.72 272.34 466 272C465.34 274.31 464.68 276.62 464 279C464.99 279.33 465.98 279.66 467 280C464.36 280 461.72 280 459 280C459.99 279.67 460.98 279.34 462 279C462.102 278.162 462.204 277.324 462.309 276.461C463.081 272.593 464.454 269.199 466.062 265.625C466.344 264.984 466.626 264.344 466.916 263.684C467.605 262.12 468.301 260.559 469 259Z" fill="white"/>
<path d="M432.188 258.375C433.274 258.486 434.361 258.597 435.48 258.711C436.312 258.806 437.143 258.902 438 259C438.33 261.64 438.66 264.28 439 267C438.381 266.196 437.762 265.391 437.125 264.562C434.611 261.531 433.921 261.118 430.062 260.625C426.885 260.676 426.885 260.676 425.125 263.062C423.351 267.696 423.377 271.279 425.062 275.937C426.93 278.354 426.93 278.354 430.438 278.5C434.009 277.999 435.446 277.452 438 275C438.66 275.33 439.32 275.66 440 276C437.586 279.254 435.529 280.375 431.625 281C428.045 281.254 426.939 280.97 423.562 279.312C419.929 276.033 419.164 274.48 418.625 269.625C419.069 265.329 420.296 263.322 423 260C426.644 257.571 427.929 257.917 432.188 258.375Z" fill="white"/>
<path d="M546 259C552.27 259 558.54 259 565 259C565.33 260.98 565.66 262.96 566 265C565.257 264.361 564.515 263.721 563.75 263.062C561.006 260.727 561.006 260.727 557 260C557 266.27 557 272.54 557 279C557.99 279.33 558.98 279.66 560 280C557.03 280 554.06 280 551 280C551.99 279.67 552.98 279.34 554 279C554 272.73 554 266.46 554 260C547.225 262.012 547.225 262.012 546 265C545.34 265 544.68 265 544 265C544.66 263.02 545.32 261.04 546 259Z" fill="#FCECFD"/>
<path d="M469 259C470.32 259 471.64 259 473 259C473.66 261.31 474.32 263.62 475 266C474.34 266 473.68 266 473 266C473 267.65 473 269.3 473 271C471.02 271 469.04 271 467 271C465.356 266.067 466.814 263.46 469 259Z" fill="white"/>
<path d="M587 259C589.64 259 592.28 259 595 259C594.01 259.495 594.01 259.495 593 260C593 266.27 593 272.54 593 279C593.66 279.33 594.32 279.66 595 280C592.36 280 589.72 280 587 280C587.99 279.67 588.98 279.34 590 279C590 272.73 590 266.46 590 260C589.01 259.67 588.02 259.34 587 259Z" fill="#FDF0FE"/>
<path d="M617 259C619.31 259 621.62 259 624 259C623.524 259.735 623.524 259.735 623.039 260.484C621.586 264.002 621.534 267.497 621.375 271.25C621.336 271.995 621.298 272.74 621.258 273.508C621.164 275.338 621.081 277.169 621 279C621.99 279.33 622.98 279.66 624 280C621.69 280 619.38 280 617 280C617.66 279.67 618.32 279.34 619 279C619 272.73 619 266.46 619 260C618.34 259.67 617.68 259.34 617 259Z" fill="white"/>
<path d="M546 259C552.27 259 558.54 259 565 259C565.33 260.98 565.66 262.96 566 265C565.278 264.361 564.556 263.721 563.812 263.062C561.018 261.013 559.383 260.387 556 260C555.67 261.32 555.34 262.64 555 264C554.67 262.68 554.34 261.36 554 260C549.189 261.526 549.189 261.526 546 265C545.34 265 544.68 265 544 265C544.66 263.02 545.32 261.04 546 259Z" fill="white"/>
<path d="M623 260C623.66 260 624.32 260 625 260C626.65 262.97 628.3 265.94 630 269C628.68 269.33 627.36 269.66 626 270C623.592 266.488 622.634 264.273 623 260Z" fill="white"/>
<path d="M470 263C472.565 265.565 472.54 267.477 473 271C471.02 271 469.04 271 467 271C468.875 264.125 468.875 264.125 470 263Z" fill="#1E1E1E"/>
<path d="M592 261C592.33 261 592.66 261 593 261C593 266.94 593 272.88 593 279C593.66 279.33 594.32 279.66 595 280C592.36 280 589.72 280 587 280C587.99 279.67 588.98 279.34 590 279C590 278.34 590 277.68 590 277C590.66 277 591.32 277 592 277C592 271.72 592 266.44 592 261Z" fill="#F7E1FA"/>
<path d="M77 264C77.66 264.33 78.32 264.66 79 265C78.67 265.33 78.34 265.66 78 266C77.7692 267.347 77.5885 268.704 77.4375 270.062C77.2931 271.362 77.1488 272.661 77 274C76.67 273.01 76.34 272.02 76 271C75.67 271.66 75.34 272.32 75 273C74.34 273 73.68 273 73 273C72.67 272.01 72.34 271.02 72 270C72.66 270 73.32 270 74 270C73.67 268.68 73.34 267.36 73 266C74.875 264.938 74.875 264.938 77 264Z" fill="white"/>
<path d="M546 259C548.97 259 551.94 259 555 259C555 259.33 555 259.66 555 260C553.329 260.402 553.329 260.402 551.625 260.812C547.782 261.658 547.782 261.658 546 265C545.34 265 544.68 265 544 265C544.66 263.02 545.32 261.04 546 259Z" fill="white"/>
<path d="M679 273C679.66 273 680.32 273 681 273C680.25 275.938 680.25 275.938 679 279C677 280 677 280 675 280C674.34 279.34 673.68 278.68 673 278C673.804 277.546 674.609 277.093 675.438 276.625C678.089 275.253 678.089 275.253 679 273Z" fill="white"/>
<path d="M420 264C420.99 264 421.98 264 423 264C422.744 266.343 422.407 268.678 422 271C421.01 271.495 421.01 271.495 420 272C420 269.36 420 266.72 420 264Z" fill="#FBF3FD"/>
</g>
<defs>
<clipPath id="clip0_1_2">
<rect width="1080" height="1080" fill="white"/>
</clipPath>
</defs>
</svg>
