<svg width="922" height="564" viewBox="0 0 922 564" fill="none" xmlns="http://www.w3.org/2000/svg">
<path d="M0 542.953C304.26 542.953 608.52 542.953 922 542.953C922 549.883 922 556.813 922 563.953C617.74 563.953 313.48 563.953 0 563.953C0 557.023 0 550.093 0 542.953Z" fill="#522B64"/>
<path d="M214 89.9526C222.92 89.906 231.839 89.8706 240.759 89.849C244.902 89.8386 249.045 89.8246 253.188 89.8017C257.195 89.7798 261.202 89.768 265.209 89.7629C266.728 89.7592 268.248 89.7521 269.768 89.7412C285.726 89.6314 301.708 90.6941 313.938 102.265C314.991 103.466 316.012 104.697 317 105.953C317.545 106.611 318.091 107.27 318.652 107.949C350.169 149.185 352.323 216.156 353 265.953C353.011 266.741 353.022 267.529 353.033 268.341C353.373 294.285 352.895 320.073 351 345.953C350.88 347.603 350.88 347.603 350.757 349.287C350.263 355.852 349.655 362.402 349 368.953C348.852 370.518 348.852 370.518 348.7 372.115C345.161 409.164 339.402 455.013 310.262 481.535C298.3 490.984 282.189 491.251 267.711 491.148C266.156 491.144 264.601 491.141 263.046 491.139C258.985 491.132 254.925 491.112 250.864 491.09C246.708 491.069 242.551 491.06 238.395 491.05C230.263 491.029 222.131 490.995 214 490.953C214 488.973 214 486.993 214 484.953C220.93 484.953 227.86 484.953 235 484.953C235 356.583 235 228.213 235 95.9526C228.07 95.9526 221.14 95.9526 214 95.9526C214 93.9726 214 91.9926 214 89.9526Z" fill="#522B64"/>
<path d="M845.777 164.722C861.463 173.406 868.007 190.659 872.893 206.926C876.472 219.759 879.237 232.749 881 245.953C881.125 246.882 881.249 247.811 881.378 248.768C882.388 256.483 883.229 264.21 884 271.953C884.161 273.51 884.161 273.51 884.325 275.099C886.183 293.913 886.209 312.751 886.25 331.64C886.255 332.885 886.261 334.13 886.266 335.413C886.342 358.796 885.286 382.015 881.687 405.14C881.58 405.846 881.472 406.552 881.361 407.279C871.144 474.186 871.144 474.186 850.992 489.476C843.965 494.099 837.4 495.92 829 494.953C819.208 492.583 812.097 486.696 806.832 478.207C788.899 447.353 785.934 408.77 783.299 373.889C783.112 371.428 782.915 368.969 782.701 366.511C781.791 355.108 781.849 343.708 781.87 332.276C781.875 328.79 781.87 325.304 781.863 321.818C781.824 209.047 781.824 209.047 811.367 172.562C820.752 163.312 833.232 159.872 845.777 164.722Z" fill="#522B64"/>
<path d="M89 90.9526C98.57 90.9526 108.14 90.9526 118 90.9526C122.197 103.545 122.197 103.545 120.495 109.81C119.862 112.55 119.849 115.111 119.823 117.924C119.81 119.129 119.797 120.335 119.784 121.577C119.777 122.878 119.769 124.179 119.762 125.519C119.758 126.186 119.754 126.852 119.749 127.539C119.729 131.073 119.714 134.606 119.705 138.139C119.694 141.762 119.659 145.383 119.62 149.005C119.593 151.813 119.585 154.621 119.582 157.429C119.574 159.405 119.548 161.381 119.521 163.356C119.556 177.997 124.612 188.332 134.563 198.828C141.4 206.208 145.095 214.751 145.161 224.788C145.171 225.963 145.18 227.138 145.19 228.349C145.195 229.615 145.199 230.882 145.203 232.187C145.209 233.494 145.215 234.801 145.22 236.148C145.231 238.915 145.237 241.682 145.24 244.45C145.246 247.978 145.27 251.506 145.298 255.034C145.321 258.418 145.323 261.803 145.328 265.187C145.34 266.446 145.353 267.704 145.366 269.001C145.343 277.819 144.415 285.454 138.204 292.202C132.952 296.374 126.472 298.818 120.375 301.515C118.261 302.47 116.15 303.429 114.039 304.389C112.662 305.013 111.284 305.635 109.905 306.255C104.598 308.645 99.4108 311.218 94.2446 313.902C92 314.953 92 314.953 90 314.953C92.7896 318.381 96.6586 319.912 100.563 321.753C101.309 322.112 102.056 322.471 102.825 322.841C105.214 323.988 107.607 325.127 110 326.265C141.231 341.17 141.231 341.17 144 347.953C145.407 353.101 145.633 357.385 143.313 362.265C142.57 363.512 141.802 364.743 141 365.953C140.464 366.819 139.928 367.685 139.375 368.578C132.092 375.86 121.686 379.488 112.375 383.515C104.602 386.88 97.0426 390.19 90 394.953C93.3306 396.791 96.6645 398.623 100 400.453C100.999 401.001 101.997 401.549 103.026 402.114C108.891 405.314 114.796 408.364 120.813 411.265C128.869 415.219 136.791 419.261 140.41 427.917C141.895 433.039 141.582 437.195 139.438 442.078C131.607 455.787 111.359 460.078 97.606 465.489C91.4032 467.914 91.4032 467.914 85.3828 470.75C83 471.953 83 471.953 81 471.953C81 472.613 81 473.273 81 473.953C81.5221 474.204 82.0441 474.455 82.582 474.714C86.3161 476.627 89.9312 478.747 93.5596 480.851C97.0737 482.88 100.618 484.764 104.25 486.578C107.466 488.326 107.908 488.758 109.563 492.265C109.707 493.152 109.851 494.039 110 494.953C109.34 495.613 108.68 496.273 108 496.953C100.687 496.758 94.9332 494.606 88.3125 491.64C87.4018 491.249 86.4911 490.858 85.5527 490.455C78.4879 487.361 72.5061 484.461 68 477.953C66.0847 472.207 65.6344 465.184 68.0234 459.531C74.6016 450.154 86.034 445.772 96.0064 440.925C99.0157 439.457 102.007 437.954 105 436.453C106.667 435.619 108.333 434.786 110 433.953C106.31 429.423 101.444 427.609 96.25 425.265C65.6758 411.035 65.6758 411.035 61 399.953C60.3549 394.951 60.3092 389.201 62.6914 384.648C70.2416 374.867 84.2675 370.271 95.1148 365.282C98.6449 363.655 102.16 361.997 105.673 360.335C108.779 358.867 111.889 357.41 115 355.953C111.35 352.807 107.788 350.734 103.406 348.746C102.778 348.457 102.15 348.169 101.503 347.871C99.5052 346.954 97.503 346.046 95.5 345.14C87.8578 341.669 80.2406 338.168 72.7813 334.316C71.761 333.789 70.7407 333.262 69.6895 332.719C64.7838 329.497 62.3326 325.616 61 319.953C60.5315 314.049 61.0928 310.266 64 304.953C67.5038 300.998 71.2072 298.448 75.875 296.078C76.5299 295.737 77.1849 295.396 77.8596 295.044C82.9325 292.43 88.082 289.991 93.2693 287.613C100.605 284.246 107.798 280.596 115 276.953C111.797 274.355 108.476 272.614 104.758 270.843C104.153 270.553 103.548 270.263 102.925 269.965C100.994 269.04 99.0595 268.121 97.125 267.203C92.716 265.1 88.3102 262.991 83.9097 260.871C82.6151 260.249 81.3195 259.628 80.023 259.009C78.0972 258.088 76.1771 257.157 74.2578 256.222C73.1326 255.679 72.0074 255.136 70.8482 254.577C64.9335 251.204 62.8164 246.373 61 239.953C59.7538 224.65 62.4778 210.275 72.2852 198.121C73.8158 196.457 75.361 194.807 76.9219 193.171C87.2635 182.13 87.4291 168.4 87.2227 154.058C87.212 152.455 87.2029 150.853 87.1954 149.25C87.1728 145.065 87.1339 140.881 87.0894 136.697C87.0187 129.984 86.9638 123.272 86.9271 116.559C86.9105 114.228 86.8809 111.898 86.8504 109.568C86.8399 108.131 86.8299 106.695 86.8206 105.258C86.8071 104.013 86.7936 102.768 86.7797 101.485C87 97.9526 87 97.9526 89 90.9526Z" fill="#522B64"/>
<path d="M438 84.9526C461.43 84.9526 484.86 84.9526 509 84.9526C509 86.9326 509 88.9126 509 90.9526C504.05 90.9526 499.1 90.9526 494 90.9526C494.241 92.8521 494.482 94.7515 494.731 96.7085C503.069 162.381 503.069 162.381 506.375 188.765C506.497 189.736 506.618 190.708 506.744 191.709C508.242 203.684 509.679 215.664 511.027 227.658C511.945 235.732 513.061 243.771 514.254 251.808C515.893 262.959 517.292 274.143 518.632 285.334C518.884 287.435 519.137 289.536 519.39 291.637C520.109 297.599 520.825 303.56 521.541 309.522C521.983 313.203 522.426 316.884 522.871 320.564C523.037 321.946 523.203 323.327 523.368 324.708C524.333 332.777 525.387 340.82 526.616 348.854C527.158 353.233 527.183 357.549 527 361.953C527.66 361.953 528.32 361.953 529 361.953C528.951 360.377 528.951 360.377 528.902 358.77C528.907 352.747 529.784 346.836 530.574 340.875C530.82 338.973 530.82 338.973 531.071 337.034C531.513 333.627 531.96 330.221 532.41 326.815C532.782 323.982 533.151 321.149 533.52 318.315C535.598 302.36 537.733 286.414 539.984 270.482C542.286 254.17 544.305 237.825 546.319 221.475C547.45 212.298 548.592 203.122 549.737 193.946C550.111 190.938 550.484 187.929 550.857 184.92C552.159 174.448 553.514 163.985 554.975 153.533C559.335 127.105 559.335 127.105 554.937 101.265C549.482 94.7539 540.966 92.784 533 90.9526C533 88.9726 533 86.9926 533 84.9526C553.46 84.9526 573.92 84.9526 595 84.9526C595 86.9326 595 88.9126 595 90.9526C594.203 91.195 593.407 91.4373 592.586 91.687C581.455 95.1211 581.455 95.1211 574 103.64C561.038 131.697 559.723 166.849 556.143 197.207C554.802 208.56 553.337 219.881 551.687 231.194C550.736 237.729 549.894 244.276 549.062 250.828C548.762 253.179 548.461 255.531 548.16 257.882C548.078 258.525 547.996 259.168 547.912 259.83C546.903 267.732 545.881 275.632 544.861 283.532C543.738 292.233 542.616 300.934 541.496 309.636C540.831 314.802 540.165 319.967 539.5 325.133C539.166 327.723 538.833 330.313 538.5 332.903C536.659 347.213 534.797 361.52 532.879 375.82C531.486 386.21 530.159 396.603 528.937 407.015C527.774 416.811 526.526 426.587 525.072 436.344C524.076 443.135 523.312 449.943 522.562 456.765C521.185 469.247 519.206 481.593 517 493.953C515.35 493.953 513.7 493.953 512 493.953C510.364 487.896 509.333 481.92 508.52 475.703C508.386 474.712 508.253 473.722 508.115 472.702C507.827 470.567 507.542 468.433 507.258 466.297C506.493 460.556 505.713 454.817 504.934 449.078C504.774 447.901 504.614 446.724 504.45 445.511C502.834 433.647 501.116 421.799 499.375 409.953C499.078 407.932 498.782 405.912 498.486 403.892C498.055 400.958 497.624 398.025 497.193 395.091C495.944 386.589 494.715 378.085 493.5 369.578C493.404 368.907 493.308 368.235 493.209 367.544C491.87 358.16 490.554 348.774 489.242 339.386C489.088 338.284 488.934 337.182 488.776 336.047C488.015 330.601 487.255 325.154 486.498 319.707C485.232 310.615 483.95 301.528 482.57 292.453C481.266 283.866 480.047 275.269 478.844 266.667C478.749 265.99 478.654 265.312 478.556 264.614C477.671 258.286 476.788 251.959 475.907 245.631C475.325 241.455 474.741 237.28 474.156 233.105C474.061 232.425 473.966 231.746 473.868 231.046C472.82 223.581 471.739 216.126 470.523 208.687C469.092 199.897 467.894 191.077 466.695 182.253C466.592 181.492 466.488 180.731 466.382 179.946C465.412 172.802 464.447 165.657 463.485 158.512C462.85 153.8 462.212 149.089 461.57 144.378C461.466 143.61 461.361 142.843 461.254 142.051C459.506 129.24 457.577 116.461 455.517 103.696C455.318 102.454 455.119 101.213 454.914 99.9338C454.737 98.8464 454.56 97.759 454.378 96.6386C454 93.9526 454 93.9526 454 90.9526C448.72 90.9526 443.44 90.9526 438 90.9526C438 88.9726 438 86.9926 438 84.9526Z" fill="#522B64"/>
<path d="M271 95.9526C290.061 95.9526 290.061 95.9526 297.473 103.121C312.197 120.783 310.13 156.196 310.796 178.242C310.901 181.709 311.007 185.176 311.121 188.643C312.124 219.765 312.198 250.88 312.188 282.015C312.188 284.013 312.188 286.011 312.188 288.009C312.188 320.164 312.095 352.31 311.125 384.453C311.105 385.124 311.085 385.796 311.065 386.488C310.624 401.411 309.918 416.313 309.016 431.214C308.976 431.891 308.936 432.568 308.894 433.266C306.74 469.255 306.74 469.255 295 479.953C287.752 485.484 279.879 484.953 271 484.953C271 356.583 271 228.213 271 95.9526Z" fill="white"/>
<path d="M651 167.953C664.2 167.953 677.4 167.953 691 167.953C692.845 173.488 694.531 178.71 695.914 184.326C696.082 185.004 696.25 185.682 696.423 186.381C696.97 188.595 697.513 190.811 698.055 193.027C698.442 194.598 698.829 196.169 699.217 197.74C700.027 201.03 700.836 204.321 701.642 207.612C702.659 211.762 703.681 215.912 704.705 220.06C708.387 234.991 712.051 249.92 715.412 264.927C716.947 271.772 718.618 278.576 720.347 285.375C721.645 290.502 722.923 295.635 724.204 300.766C725.067 304.222 725.931 307.677 726.795 311.132C727.151 312.556 727.507 313.981 727.863 315.405C728.04 316.114 728.218 316.823 728.4 317.553C732.933 335.687 737.467 353.82 742 371.953C742.047 349.473 742.082 326.994 742.104 304.514C742.114 294.076 742.128 283.637 742.151 273.199C742.171 264.097 742.184 254.995 742.188 245.893C742.191 241.077 742.197 236.261 742.211 231.445C742.225 226.905 742.229 222.364 742.226 217.824C742.227 216.165 742.231 214.506 742.238 212.846C742.922 193.994 742.922 193.994 734.938 177.828C730.864 175.227 726.527 173.605 722 171.953C722 170.633 722 169.313 722 167.953C738.17 167.953 754.34 167.953 771 167.953C771 169.273 771 170.593 771 171.953C770.348 172.111 769.695 172.27 769.023 172.433C763.291 173.964 759.064 175.405 755 179.953C745.276 198.048 747.838 221.446 747.795 241.245C747.786 244.006 747.775 246.766 747.765 249.527C747.743 255.447 747.725 261.367 747.709 267.288C747.686 275.847 747.658 284.407 747.629 292.966C747.581 306.857 747.538 320.747 747.497 334.638C747.458 348.123 747.416 361.608 747.372 375.093C747.37 375.925 747.367 376.758 747.364 377.616C747.35 381.794 747.337 385.972 747.323 390.149C747.209 424.75 747.102 459.352 747 493.953C745.68 493.953 744.36 493.953 743 493.953C742.572 492.361 742.143 490.77 741.715 489.179C741.435 488.139 741.155 487.1 740.866 486.029C740.24 483.7 739.613 481.371 738.987 479.043C737.372 473.038 735.752 467.034 734.117 461.035C733.814 459.919 733.511 458.804 733.199 457.655C732.631 455.561 732.06 453.468 731.486 451.375C729.929 445.63 728.495 439.866 727.15 434.068C725.166 425.579 723.063 417.124 720.918 408.675C720.537 407.17 720.156 405.665 719.775 404.16C718.982 401.027 718.187 397.896 717.392 394.764C716.593 391.615 715.795 388.465 714.999 385.315C710.948 369.291 706.856 353.284 702.518 337.335C699.143 324.878 696.046 312.353 692.938 299.828C692.346 297.451 691.754 295.075 691.162 292.699C689.996 288.018 688.831 283.336 687.667 278.655C685.666 270.605 683.654 262.557 681.64 254.51C679.864 247.408 678.088 240.305 676.312 233.202C675.989 231.908 675.665 230.614 675.342 229.319C674.561 226.197 673.781 223.075 673 219.953C672.954 249.49 672.919 279.028 672.898 308.566C672.895 312.061 672.893 315.555 672.89 319.049C672.889 320.093 672.889 320.093 672.889 321.157C672.88 332.392 672.864 343.626 672.846 354.861C672.827 366.405 672.816 377.949 672.812 389.494C672.809 395.971 672.803 402.448 672.789 408.925C672.775 415.032 672.771 421.138 672.774 427.245C672.773 429.476 672.769 431.708 672.762 433.94C671.764 457.355 671.764 457.355 679 478.953C683.575 483.413 687.732 485.098 694 485.953C694 487.603 694 489.253 694 490.953C677.83 490.953 661.66 490.953 645 490.953C645 489.303 645 487.653 645 485.953C645.978 485.715 645.978 485.715 646.977 485.472C652.704 483.943 656.986 482.54 661 477.953C669.667 461.995 667.305 440.005 667.319 422.503C667.327 419.762 667.338 417.02 667.349 414.279C667.371 408.41 667.387 402.54 667.397 396.671C667.411 388.185 667.437 379.699 667.465 371.213C667.51 357.441 667.547 343.668 667.578 329.896C667.608 316.528 667.643 303.161 667.683 289.793C667.685 288.967 667.688 288.141 667.69 287.29C667.702 283.146 667.715 279.002 667.727 274.859C667.831 240.557 667.92 206.255 668 171.953C662.39 171.953 656.78 171.953 651 171.953C651 170.633 651 169.313 651 167.953Z" fill="#522B64"/>
<path d="M837 166.953C842.538 169.665 845.574 173.409 848 178.953C852.597 193.946 852.166 210.232 852.555 225.785C852.576 226.607 852.597 227.43 852.618 228.278C853.276 255.164 853.15 282.064 853.129 308.957C853.125 314.119 853.126 319.281 853.13 324.443C853.154 354.38 853.106 384.316 852.673 414.251C852.637 416.798 852.603 419.344 852.571 421.89C852.409 434.611 852.054 447.306 851.211 460.002C851.152 461.043 851.093 462.084 851.032 463.157C850.376 471.926 848.56 481.598 842 487.953C837.738 490.47 833.842 490.736 829 489.953C822.163 486.083 820.49 479.986 818.348 472.75C811.011 442.119 814.84 405.676 814.866 374.28C814.868 370.035 814.866 365.791 814.864 361.547C814.862 354.433 814.865 347.32 814.87 340.207C814.875 332.096 814.873 323.985 814.868 315.874C814.863 308.786 814.863 301.699 814.865 294.611C814.867 290.432 814.867 286.253 814.864 282.074C814.852 264.892 814.979 247.723 815.454 230.547C815.474 229.809 815.493 229.072 815.514 228.312C816.869 179.405 816.869 179.405 825.402 170.257C829.124 167.218 832.21 166.378 837 166.953Z" fill="white"/>
<path d="M376 167.953C396.79 167.953 417.58 167.953 439 167.953C439 169.273 439 170.593 439 171.953C433.39 171.953 427.78 171.953 422 171.953C422 275.573 422 379.193 422 485.953C427.61 485.953 433.22 485.953 439 485.953C439 487.603 439 489.253 439 490.953C418.21 490.953 397.42 490.953 376 490.953C376 489.303 376 487.653 376 485.953C381.61 485.953 387.22 485.953 393 485.953C393 382.333 393 278.713 393 171.953C387.39 171.953 381.78 171.953 376 171.953C376 170.633 376 169.313 376 167.953Z" fill="#522B64"/>
<path d="M573 167.953C593.79 167.953 614.58 167.953 636 167.953C636 169.273 636 170.593 636 171.953C630.39 171.953 624.78 171.953 619 171.953C619 275.573 619 379.193 619 485.953C624.61 485.953 630.22 485.953 636 485.953C636 487.603 636 489.253 636 490.953C615.21 490.953 594.42 490.953 573 490.953C573 489.633 573 488.313 573 486.953C578.61 486.953 584.22 486.953 590 486.953C590 383.003 590 279.053 590 171.953C584.39 171.953 578.78 171.953 573 171.953C573 170.633 573 169.313 573 167.953Z" fill="#522B64"/>
<path d="M0 7.95264C102.63 7.95264 205.26 7.95264 311 7.95264C311 10.9226 311 13.8926 311 16.9526C208.37 16.9526 105.74 16.9526 0 16.9526C0 13.9826 0 11.0126 0 7.95264Z" fill="#522B64"/>
<path d="M625 7.95264C723.01 7.95264 821.02 7.95264 922 7.95264C922 10.9226 922 13.8926 922 16.9526C823.99 16.9526 725.98 16.9526 625 16.9526C625 13.9826 625 11.0126 625 7.95264Z" fill="#522B64"/>
<path d="M582 0.952637C587.94 0.952637 593.88 0.952637 600 0.952637C600.66 2.93264 601.32 4.91264 602 6.95264C601.34 6.95264 600.68 6.95264 600 6.95264C599.629 6.47826 599.257 6.00389 598.875 5.51514C595.898 3.03448 592.811 3.26501 589 2.95264C588.67 5.26264 588.34 7.57264 588 9.95264C589.65 9.95264 591.3 9.95264 593 9.95264C593.33 8.63264 593.66 7.31264 594 5.95264C594.33 5.95264 594.66 5.95264 595 5.95264C595 9.25264 595 12.5526 595 15.9526C594.34 15.6226 593.68 15.2926 593 14.9526C593 13.9626 593 12.9726 593 11.9526C591.35 11.9526 589.7 11.9526 588 11.9526C588.33 14.5926 588.66 17.2326 589 19.9526C593.654 20.2773 596.234 19.7505 600 16.9526C600.33 16.2926 600.66 15.6326 601 14.9526C601.66 14.9526 602.32 14.9526 603 14.9526C601.125 20.8276 601.125 20.8276 600 21.9526C598.657 22.039 597.31 22.0597 595.965 22.0503C595.156 22.0471 594.347 22.0438 593.514 22.0405C592.664 22.0321 591.813 22.0238 590.938 22.0151C590.083 22.0106 589.229 22.0061 588.35 22.0015C586.233 21.9896 584.117 21.9717 582 21.9526C582.66 21.6226 583.32 21.2926 584 20.9526C584 14.6826 584 8.41264 584 1.95264C583.34 1.62264 582.68 1.29264 582 0.952637Z" fill="#522B64"/>
<path d="M426 0.952637C429.191 0.515137 429.191 0.515137 433 0.952637C435.183 2.96808 436.504 5.3707 437.938 7.95264C438.335 8.62037 438.733 9.28811 439.143 9.97607C440.118 11.6215 441.062 13.2854 442 14.9526C442.33 10.6626 442.66 6.37264 443 1.95264C442.01 1.62264 441.02 1.29264 440 0.952637C442.31 0.952637 444.62 0.952637 447 0.952637C446.01 1.44764 446.01 1.44764 445 1.95264C445 8.55264 445 15.1526 445 21.9526C443.68 21.9526 442.36 21.9526 441 21.9526C439.628 20.4839 439.628 20.4839 438.422 18.4526C437.984 17.7308 437.545 17.0089 437.094 16.2651C436.429 15.1204 436.429 15.1204 435.75 13.9526C435.291 13.1895 434.832 12.4264 434.359 11.6401C433.227 9.75207 432.112 7.85331 431 5.95264C430.67 10.9026 430.34 15.8526 430 20.9526C430.99 21.2826 431.98 21.6126 433 21.9526C430.69 21.9526 428.38 21.9526 426 21.9526C426.66 21.6226 427.32 21.2926 428 20.9526C428 14.6826 428 8.41264 428 1.95264C427.34 1.62264 426.68 1.29264 426 0.952637Z" fill="#522B64"/>
<path d="M539 0.952637C542.191 0.515137 542.191 0.515137 546 0.952637C548.183 2.96808 549.504 5.3707 550.938 7.95264C551.335 8.62037 551.733 9.28811 552.143 9.97607C553.118 11.6215 554.062 13.2854 555 14.9526C555.33 10.6626 555.66 6.37264 556 1.95264C555.01 1.62264 554.02 1.29264 553 0.952637C555.31 0.952637 557.62 0.952637 560 0.952637C559.01 1.44764 559.01 1.44764 558 1.95264C558 8.55264 558 15.1526 558 21.9526C554 20.9526 554 20.9526 552.628 19.3704C552.23 18.7053 551.832 18.0402 551.422 17.355C550.984 16.6363 550.545 15.9177 550.094 15.1772C549.429 14.0451 549.429 14.0451 548.75 12.8901C548.291 12.1315 547.832 11.3729 547.359 10.5913C546.229 8.71837 545.113 6.83634 544 4.95264C543.67 10.2326 543.34 15.5126 543 20.9526C543.99 21.2826 544.98 21.6126 546 21.9526C543.69 21.9526 541.38 21.9526 539 21.9526C539.66 21.6226 540.32 21.2926 541 20.9526C541 14.6826 541 8.41264 541 1.95264C540.34 1.62264 539.68 1.29264 539 0.952637Z" fill="#522B64"/>
<path d="M391 0.952637C392.32 0.952637 393.64 0.952637 395 0.952637C396.172 3.90883 397.337 6.86792 398.5 9.82764C398.834 10.6694 399.168 11.5112 399.512 12.3784C399.828 13.1841 400.143 13.9897 400.469 14.8198C400.909 15.9353 400.909 15.9353 401.357 17.0732C402 18.9526 402 18.9526 402 20.9526C402.66 21.2826 403.32 21.6126 404 21.9526C401.36 21.9526 398.72 21.9526 396 21.9526C396.66 21.6226 397.32 21.2926 398 20.9526C397.34 18.9726 396.68 16.9926 396 14.9526C393.36 14.6226 390.72 14.2926 388 13.9526C387.34 16.2626 386.68 18.5726 386 20.9526C386.99 21.2826 387.98 21.6126 389 21.9526C386.36 21.9526 383.72 21.9526 381 21.9526C381.99 21.6226 382.98 21.2926 384 20.9526C384.102 20.1147 384.204 19.2769 384.309 18.4136C385.081 14.546 386.454 11.1521 388.062 7.57764C388.344 6.93697 388.626 6.29631 388.916 5.63623C389.605 4.07234 390.301 2.5121 391 0.952637Z" fill="#522B64"/>
<path d="M354.188 0.327635C355.274 0.438494 356.361 0.549354 357.48 0.663572C358.312 0.758963 359.143 0.854354 360 0.952635C360.33 3.59264 360.66 6.23263 361 8.95263C360.381 8.14826 359.762 7.34388 359.125 6.51513C356.611 3.48332 355.921 3.0702 352.062 2.57764C348.885 2.6286 348.885 2.6286 347.125 5.01513C345.351 9.64824 345.377 13.2313 347.062 17.8901C348.93 20.3067 348.93 20.3067 352.438 20.4526C356.009 19.9514 357.446 19.4049 360 16.9526C360.66 17.2826 361.32 17.6126 362 17.9526C359.586 21.2062 357.529 22.3272 353.625 22.9526C350.045 23.2063 348.939 22.9227 345.562 21.2651C341.929 17.986 341.164 16.4322 340.625 11.5776C341.069 7.28183 342.296 5.2748 345 1.95263C348.644 -0.476821 349.929 -0.130243 354.188 0.327635Z" fill="#522B64"/>
<path d="M468 0.952637C474.27 0.952637 480.54 0.952637 487 0.952637C487.33 2.93264 487.66 4.91264 488 6.95264C487.257 6.31326 486.515 5.67389 485.75 5.01514C483.006 2.67928 483.006 2.67928 479 1.95264C479 8.22264 479 14.4926 479 20.9526C479.99 21.2826 480.98 21.6126 482 21.9526C479.03 21.9526 476.06 21.9526 473 21.9526C473.99 21.6226 474.98 21.2926 476 20.9526C476 14.6826 476 8.41264 476 1.95264C469.225 3.96415 469.225 3.96415 468 6.95264C467.34 6.95264 466.68 6.95264 466 6.95264C466.66 4.97264 467.32 2.99264 468 0.952637Z" fill="#522B64"/>
<path d="M391 0.952637C392.32 0.952637 393.64 0.952637 395 0.952637C395.66 3.26264 396.32 5.57264 397 7.95264C396.34 7.95264 395.68 7.95264 395 7.95264C395 9.60264 395 11.2526 395 12.9526C393.02 12.9526 391.04 12.9526 389 12.9526C387.356 8.01993 388.814 5.4124 391 0.952637Z" fill="#522B64"/>
<path d="M509 0.952637C511.64 0.952637 514.28 0.952637 517 0.952637C516.01 1.44764 516.01 1.44764 515 1.95264C515 8.22264 515 14.4926 515 20.9526C515.66 21.2826 516.32 21.6126 517 21.9526C514.36 21.9526 511.72 21.9526 509 21.9526C509.99 21.6226 510.98 21.2926 512 20.9526C512 14.6826 512 8.41264 512 1.95264C511.01 1.62264 510.02 1.29264 509 0.952637Z" fill="#522B64"/>
<path d="M539 0.952637C541.31 0.952637 543.62 0.952637 546 0.952637C545.524 1.6874 545.524 1.6874 545.039 2.43701C543.586 5.95431 543.534 9.44929 543.375 13.2026C543.336 13.9477 543.298 14.6928 543.258 15.4604C543.164 17.2908 543.081 19.1217 543 20.9526C543.99 21.2826 544.98 21.6126 546 21.9526C543.69 21.9526 541.38 21.9526 539 21.9526C539.66 21.6226 540.32 21.2926 541 20.9526C541 14.6826 541 8.41264 541 1.95264C540.34 1.62264 539.68 1.29264 539 0.952637Z" fill="#522B64"/>
<path d="M468 0.952637C474.27 0.952637 480.54 0.952637 487 0.952637C487.33 2.93264 487.66 4.91264 488 6.95264C487.278 6.31326 486.556 5.67389 485.812 5.01514C483.018 2.9659 481.383 2.33931 478 1.95264C477.67 3.27264 477.34 4.59264 477 5.95264C476.67 4.63264 476.34 3.31264 476 1.95264C471.189 3.4782 471.189 3.4782 468 6.95264C467.34 6.95264 466.68 6.95264 466 6.95264C466.66 4.97264 467.32 2.99264 468 0.952637Z" fill="#522B64"/>
<path d="M545 1.95264C545.66 1.95264 546.32 1.95264 547 1.95264C548.65 4.92264 550.3 7.89264 552 10.9526C550.68 11.2826 549.36 11.6126 548 11.9526C545.592 8.44076 544.634 6.22607 545 1.95264Z" fill="#522B64"/>
<path d="M392 4.95264C394.565 7.5181 394.54 9.4295 395 12.9526C393.02 12.9526 391.04 12.9526 389 12.9526C390.875 6.07764 390.875 6.07764 392 4.95264Z" fill="white"/>
<path d="M514 2.95264C514.33 2.95264 514.66 2.95264 515 2.95264C515 8.89264 515 14.8326 515 20.9526C515.66 21.2826 516.32 21.6126 517 21.9526C514.36 21.9526 511.72 21.9526 509 21.9526C509.99 21.6226 510.98 21.2926 512 20.9526C512 20.2926 512 19.6326 512 18.9526C512.66 18.9526 513.32 18.9526 514 18.9526C514 13.6726 514 8.39264 514 2.95264Z" fill="#522B64"/>
<path d="M468 0.952637C470.97 0.952637 473.94 0.952637 477 0.952637C477 1.28264 477 1.61264 477 1.95264C475.329 2.35482 475.329 2.35482 473.625 2.76514C469.782 3.61073 469.782 3.61073 468 6.95264C467.34 6.95264 466.68 6.95264 466 6.95264C466.66 4.97264 467.32 2.99264 468 0.952637Z" fill="#522B64"/>
<path d="M601 14.9526C601.66 14.9526 602.32 14.9526 603 14.9526C602.25 17.8901 602.25 17.8901 601 20.9526C599 21.9526 599 21.9526 597 21.9526C596.34 21.2926 595.68 20.6326 595 19.9526C595.804 19.4989 596.609 19.0451 597.438 18.5776C600.089 17.2054 600.089 17.2054 601 14.9526Z" fill="#522B64"/>
</svg>
